<svg data-v-423bf9ae="" xmlns="http://www.w3.org/2000/svg" viewBox="0 0 257.44413993543543 192" class="iconAboveSlogan"><!----><!----><!----><g data-v-423bf9ae="" id="857deb46-820c-42a1-be7c-a484355646e6" fill="black" transform="matrix(5.382482764214037,0,0,5.382482764214037,-1.1841428826566016,104.7335776070581)"><path d="M4.23 2.18L4.23 2.18L4.23 2.18Q4.23 2.56 3.72 2.66L3.72 2.66L3.72 2.66Q3.07 2.79 2.91 2.95L2.91 2.95L2.91 2.95Q1.34 4.61 1.34 7.22L1.34 7.22L1.34 7.22Q1.34 8.46 1.74 9.55L1.74 9.55L1.74 9.55Q2.06 10.44 2.20 10.72L2.20 10.72L2.20 10.72Q2.55 11.41 3.05 11.70L3.05 11.70L3.05 11.70Q3.26 11.80 3.47 11.89L3.47 11.89L3.47 11.89Q3.70 12.01 3.70 12.24L3.70 12.24L3.70 12.24Q3.70 12.46 3.55 12.64L3.55 12.64L3.55 12.64Q3.40 12.82 3.23 12.78L3.23 12.78L3.23 12.78Q3.05 12.75 2.67 12.60L2.67 12.60L2.67 12.60Q2.00 12.21 1.22 10.93L1.22 10.93L1.22 10.93Q1.02 10.61 0.82 10.27L0.82 10.27L0.82 10.27Q0.62 9.93 0.52 9.62L0.52 9.62L0.52 9.62Q0.45 9.39 0.28 7.81L0.28 7.81L0.28 7.81Q0.22 7.32 0.22 6.86L0.22 6.86L0.22 6.86Q0.22 4.38 1.67 2.65L1.67 2.65L1.67 2.65Q2.51 1.64 3.42 1.64L3.42 1.64L3.42 1.64Q3.81 1.64 4.13 1.88L4.13 1.88L4.13 1.88Q4.23 1.95 4.23 2.18ZM9.06 9.95L9.06 9.95L9.06 9.95Q9.14 10.18 9.14 10.35L9.14 10.35L9.14 10.35Q9.14 10.63 8.90 10.84L8.90 10.84L8.90 10.84Q8.67 11.05 8.58 11.03L8.58 11.03L8.58 11.03Q7.90 10.91 7.71 9.93L7.71 9.93L7.71 9.93Q7.52 8.86 7.25 8.15L7.25 8.15L7.25 8.15Q6.78 8.19 6.30 8.23L6.30 8.23L6.30 8.23Q5.75 8.30 5.45 8.57L5.45 8.57L5.45 8.57Q5.29 9.00 5.04 10.11L5.04 10.11L5.04 10.11Q4.80 11.13 4.58 11.66L4.58 11.66L4.58 11.66Q4.47 11.91 4.10 11.80L4.10 11.80L4.10 11.80Q3.64 11.65 3.61 11.38L3.61 11.38L3.61 11.38Q3.57 10.85 3.92 9.95L3.92 9.95L3.92 9.95Q4.34 8.93 4.38 8.50L4.38 8.50L4.38 8.50Q4.40 8.37 4.20 8.22L4.20 8.22L4.20 8.22Q4.00 8.06 4.00 7.98L4.00 7.98L4.00 7.98Q4.00 7.91 4.07 7.83L4.07 7.83L4.07 7.83Q4.13 7.76 4.36 7.71L4.36 7.71L4.36 7.71Q4.59 7.66 4.62 7.56L4.62 7.56L4.62 7.56Q4.87 6.86 5.42 4.96L5.42 4.96L5.42 4.96Q5.88 3.30 6.24 2.42L6.24 2.42L6.24 2.42Q6.33 2.23 6.59 2.23L6.59 2.23L6.59 2.23Q6.79 2.23 6.94 2.35L6.94 2.35L6.94 2.35Q7.34 2.69 7.45 3.36L7.45 3.36L7.45 3.36Q7.53 3.93 7.60 4.51L7.60 4.51L7.60 4.51Q8.30 7.81 9.06 9.95ZM7.01 7.28L7.01 7.28L7.01 7.28Q6.97 6.76 6.83 6.12L6.83 6.12L6.83 6.12Q6.69 5.56 6.57 5.00L6.57 5.00L6.57 5.00Q6.15 6.16 5.84 7.32L5.84 7.32L5.84 7.32Q6.06 7.28 7.01 7.28ZM15.27 10.72L15.27 10.72L15.27 10.72Q15.32 10.78 15.32 10.85L15.32 10.85L15.32 10.85Q15.32 11.17 14.64 11.34L14.64 11.34L14.64 11.34Q13.90 10.77 12.80 9.58L12.80 9.58L12.80 9.58Q11.56 8.25 10.96 7.73L10.96 7.73L10.96 7.73Q10.92 8.09 10.81 9.63L10.81 9.63L10.81 9.63Q10.74 10.79 10.56 11.48L10.56 11.48L10.56 11.48Q10.53 11.48 10.38 11.55L10.38 11.55L10.38 11.55Q10.23 11.62 10.14 11.59L10.14 11.59L10.14 11.59Q9.52 11.45 9.52 10.74L9.52 10.74L9.52 10.74Q9.52 10.53 9.58 10.18L9.58 10.18L9.58 10.18Q9.63 9.77 9.65 9.67L9.65 9.67L9.65 9.67Q9.70 8.86 9.72 7.74L9.72 7.74L9.72 6.22L9.72 6.22Q9.72 4.31 9.93 3.01L9.93 3.01L9.93 3.01Q10.07 2.14 11.56 2.21L11.56 2.21L11.56 2.21Q12.32 2.24 12.88 2.97L12.88 2.97L12.88 2.97Q13.40 3.64 13.40 4.42L13.40 4.42L13.40 4.42Q13.40 5.08 12.91 5.74L12.91 5.74L12.91 5.74Q12.49 6.33 11.87 6.66L11.87 6.66L11.87 6.66Q11.62 6.80 11.62 6.97L11.62 6.97L11.62 6.97Q11.62 7.15 11.91 7.41L11.91 7.41L11.91 7.41Q12.14 7.59 12.36 7.77L12.36 7.77L12.36 7.77Q12.38 7.78 13.90 9.17L13.90 9.17L13.90 9.17Q14.87 10.04 15.27 10.72ZM12.32 4.44L12.32 4.44L12.32 4.44Q12.36 4.19 12.35 3.99L12.35 3.99L12.35 3.99Q12.31 3.70 12.10 3.46L12.10 3.46L12.10 3.46Q11.90 3.22 11.45 3.22L11.45 3.22L11.45 3.22Q11.12 3.22 11.03 3.43L11.03 3.43L11.03 3.43Q10.96 3.78 10.96 4.23L10.96 4.23L10.96 4.23Q10.96 4.41 11.00 5.17L11.00 5.17L11.00 5.17Q11.03 5.74 11.00 6.10L11.00 6.10L11.00 6.10Q12.17 5.24 12.32 4.44ZM18.61 7.53L18.61 7.53L18.61 7.53Q18.47 7.85 18.34 8.18L18.34 8.18L18.34 8.18Q18.17 8.55 17.98 8.78L17.98 8.78L17.98 8.78Q17.54 9.32 17.11 9.86L17.11 9.86L17.11 9.86Q16.59 10.50 16.17 10.75L16.17 10.75L16.17 10.75Q16.03 10.92 15.86 11.10L15.86 11.10L15.86 11.10Q15.69 11.28 15.53 11.28L15.53 11.28L15.53 11.28Q15.44 11.28 15.33 11.24L15.33 11.24L15.33 11.24Q15.22 11.20 15.09 11.14L15.09 11.14L15.09 11.14Q14.95 11.09 14.90 10.96L14.90 10.96L14.90 10.96Q14.85 10.37 14.85 9.70L14.85 9.70L14.85 9.70Q14.85 9.02 14.91 7.66L14.91 7.66L14.91 7.66Q14.97 6.30 14.97 5.61L14.97 5.61L14.97 5.61Q14.97 4.70 14.90 3.95L14.90 3.95L14.90 3.95Q14.88 3.93 14.59 3.63L14.59 3.63L14.59 3.63Q14.41 3.44 14.41 3.29L14.41 3.29L14.41 3.29Q14.41 3.22 14.43 3.15L14.43 3.15L14.43 3.15Q14.50 2.98 14.74 2.95L14.74 2.95L14.74 2.95Q14.92 2.93 15.11 2.91L15.11 2.91L15.11 2.91Q16.28 3.16 17.57 4.23L17.57 4.23L17.57 4.23Q17.91 4.51 18.12 4.82L18.12 4.82L18.12 4.82Q18.79 5.81 18.79 6.68L18.79 6.68L18.79 6.68Q18.79 7.13 18.61 7.53ZM17.60 6.03L17.60 6.03L17.60 6.03Q17.47 5.15 16.10 4.48L16.10 4.48L16.10 4.48Q16.00 6.82 16.04 9.44L16.04 9.44L16.04 9.44Q17.63 7.85 17.63 6.43L17.63 6.43L17.63 6.43Q17.63 6.23 17.60 6.03ZM21.04 3.54L21.04 3.54L21.04 3.54Q21.07 3.95 21.07 4.38L21.07 4.38L21.07 4.38Q21.07 5.33 20.87 7.25L20.87 7.25L20.87 7.25Q20.68 9.17 20.68 10.15L20.68 10.15L20.68 10.15Q20.68 10.51 20.69 10.86L20.69 10.86L20.69 10.86Q20.57 11.26 20.15 11.24L20.15 11.24L20.15 11.24Q19.54 11.21 19.49 10.72L19.49 10.72L19.49 10.72Q19.43 10.23 19.43 9.69L19.43 9.69L19.43 9.69Q19.43 8.74 19.66 6.85L19.66 6.85L19.66 6.85Q19.89 4.96 19.89 4.02L19.89 4.02L19.89 4.02Q19.89 3.65 19.87 3.30L19.87 3.30L19.87 3.30Q20.01 3.04 20.34 3.04L20.34 3.04L20.34 3.04Q20.61 3.04 20.87 3.19L20.87 3.19L20.87 3.19Q20.93 3.15 20.96 3.15L20.96 3.15L20.96 3.15Q21.00 3.15 21.00 3.29L21.00 3.29L21.00 3.29Q20.99 3.46 21.00 3.49L21.00 3.49L21.00 3.49Q21.01 3.53 21.04 3.54ZM26.59 7.60L26.59 7.60L26.59 7.60Q25.76 9.46 24.25 9.81L24.25 9.81L24.25 9.81Q24.07 9.86 23.88 9.86L23.88 9.86L23.88 9.86Q23.09 9.86 22.27 8.99L22.27 8.99L22.27 8.99Q21.73 8.40 21.73 7.46L21.73 7.46L21.73 7.46Q21.73 6.43 22.34 5.24L22.34 5.24L22.34 5.24Q22.61 4.73 22.99 4.37L22.99 4.37L22.99 4.37Q23.42 3.93 23.81 3.93L23.81 3.93L23.81 3.93Q24.04 3.93 24.23 4.10L24.23 4.10L24.23 4.10Q24.43 4.27 25.28 4.55L25.28 4.55L25.28 4.55Q25.96 4.77 26.24 5.31L26.24 5.31L26.24 5.31Q26.73 6.24 26.73 6.92L26.73 6.92L26.73 6.92Q26.73 7.29 26.59 7.60ZM25.47 6.73L25.47 6.73L25.47 6.73Q25.37 5.71 24.92 5.52L24.92 5.52L24.92 5.52Q24.85 5.49 24.79 5.49L24.79 5.49L24.79 5.49Q24.63 5.49 24.37 5.77L24.37 5.77L24.37 5.77Q24.09 6.09 23.94 6.15L23.94 6.15L23.94 6.15Q23.84 6.19 23.66 6.06L23.66 6.06L23.66 6.06Q23.48 5.94 23.42 5.94L23.42 5.94L23.42 5.94Q23.38 5.94 23.35 5.96L23.35 5.96L23.35 5.96Q22.86 6.38 22.86 7.27L22.86 7.27L22.86 7.27Q22.86 7.87 23.14 8.29L23.14 8.29L23.14 8.29Q23.53 8.86 23.80 8.86L23.80 8.86L23.80 8.86Q24.42 8.86 24.99 8.09L24.99 8.09L24.99 8.09Q25.54 7.36 25.47 6.73ZM37.59 10.86L37.59 10.86L37.59 10.86Q37.65 11.14 37.18 11.17L37.18 11.17L37.18 11.17Q36.88 11.19 36.55 10.91L36.55 10.91L36.55 10.91Q36.29 10.67 36.13 10.14L36.13 10.14L36.13 10.14Q35.99 9.65 35.97 8.75L35.97 8.75L35.97 8.75Q35.94 7.74 35.87 7.36L35.87 7.36L35.87 7.36Q35.69 7.99 35.27 9.24L35.27 9.24L35.27 9.24Q35.01 9.93 34.96 10.02L34.96 10.02L34.96 10.02Q34.73 10.46 34.40 10.42L34.40 10.42L34.40 10.42Q33.73 10.26 33.36 9.66L33.36 9.66L33.36 9.66Q33.12 9.27 32.91 8.41L32.91 8.41L32.91 8.41Q32.69 7.48 32.54 7.15L32.54 7.15L32.54 7.15Q31.93 10.08 31.25 11.52L31.25 11.52L31.25 11.52Q31.15 11.73 30.66 11.49L30.66 11.49L30.66 11.49Q30.25 11.30 30.25 10.93L30.25 10.93L30.25 10.93Q30.25 10.81 30.55 10.04L30.55 10.04L30.55 10.04Q30.67 9.70 31.53 6.80L31.53 6.80L31.53 6.80Q31.82 5.80 32.14 3.26L32.14 3.26L32.14 3.26Q32.17 3.23 32.28 2.97L32.28 2.97L32.28 2.97Q32.35 2.77 32.54 2.77L32.54 2.77L32.54 2.77Q33.01 2.77 33.19 2.95L33.19 2.95L33.19 2.95Q33.19 3.36 33.33 4.26L33.33 4.26L33.33 4.26Q33.46 5.17 33.46 5.63L33.46 5.63L33.46 5.63Q33.59 6.41 33.70 7.21L33.70 7.21L33.70 7.21Q33.85 8.11 34.26 8.68L34.26 8.68L34.26 8.68Q35.60 4.94 35.97 2.77L35.97 2.77L35.97 2.77Q36.02 2.55 36.39 2.55L36.39 2.55L36.39 2.55Q36.90 2.55 36.97 2.88L36.97 2.88L36.97 2.88Q37.07 3.39 37.07 4.05L37.07 4.05L37.07 4.05Q37.07 4.26 37.04 4.97L37.04 4.97L37.04 4.97Q37.03 5.54 37.04 5.91L37.04 5.91L37.04 5.91Q37.17 8.86 37.59 10.86ZM43.33 9.95L43.33 9.95L43.33 9.95Q43.41 10.18 43.41 10.35L43.41 10.35L43.41 10.35Q43.41 10.63 43.18 10.84L43.18 10.84L43.18 10.84Q42.94 11.05 42.85 11.03L42.85 11.03L42.85 11.03Q42.17 10.91 41.99 9.93L41.99 9.93L41.99 9.93Q41.79 8.86 41.52 8.15L41.52 8.15L41.52 8.15Q41.05 8.19 40.57 8.23L40.57 8.23L40.57 8.23Q40.03 8.30 39.72 8.57L39.72 8.57L39.72 8.57Q39.56 9.00 39.31 10.11L39.31 10.11L39.31 10.11Q39.07 11.13 38.85 11.66L38.85 11.66L38.85 11.66Q38.74 11.91 38.37 11.80L38.37 11.80L38.37 11.80Q37.91 11.65 37.88 11.38L37.88 11.38L37.88 11.38Q37.84 10.85 38.19 9.95L38.19 9.95L38.19 9.95Q38.61 8.93 38.65 8.50L38.65 8.50L38.65 8.50Q38.67 8.37 38.47 8.22L38.47 8.22L38.47 8.22Q38.28 8.06 38.28 7.98L38.28 7.98L38.28 7.98Q38.28 7.91 38.34 7.83L38.34 7.83L38.34 7.83Q38.40 7.76 38.63 7.71L38.63 7.71L38.63 7.71Q38.86 7.66 38.89 7.56L38.89 7.56L38.89 7.56Q39.14 6.86 39.69 4.96L39.69 4.96L39.69 4.96Q40.15 3.30 40.52 2.42L40.52 2.42L40.52 2.42Q40.60 2.23 40.87 2.23L40.87 2.23L40.87 2.23Q41.06 2.23 41.22 2.35L41.22 2.35L41.22 2.35Q41.61 2.69 41.72 3.36L41.72 3.36L41.72 3.36Q41.80 3.93 41.87 4.51L41.87 4.51L41.87 4.51Q42.57 7.81 43.33 9.95ZM41.29 7.28L41.29 7.28L41.29 7.28Q41.24 6.76 41.10 6.12L41.10 6.12L41.10 6.12Q40.96 5.56 40.84 5.00L40.84 5.00L40.84 5.00Q40.42 6.16 40.11 7.32L40.11 7.32L40.11 7.32Q40.33 7.28 41.29 7.28ZM47.82 5.78L47.82 5.78L47.82 5.78Q47.29 6.93 46.91 7.31L46.91 7.31L46.91 7.31Q46.33 7.90 46.27 7.95L46.27 7.95L46.27 7.95Q45.86 8.27 45.46 8.34L45.46 8.34L45.46 8.34Q45.40 8.62 45.40 9.00L45.40 9.00L45.40 9.00Q45.40 9.27 45.44 9.81L45.44 9.81L45.44 9.81Q45.49 10.35 45.49 10.60L45.49 10.60L45.49 10.60Q45.49 11.55 45.04 12.03L45.04 12.03L45.04 12.03Q45.04 12.03 44.65 11.82L44.65 11.82L44.65 11.82Q44.41 11.69 44.38 11.51L44.38 11.51L44.38 11.51Q44.24 10.60 44.24 9.48L44.24 9.48L44.24 9.48Q44.24 8.74 44.32 7.27L44.32 7.27L44.32 7.27Q44.41 5.80 44.41 5.04L44.41 5.04L44.41 5.04Q44.41 3.95 44.28 3.04L44.28 3.04L44.28 3.04Q44.17 3.08 44.07 2.90L44.07 2.90L44.07 2.90Q43.97 2.72 43.90 2.69L43.90 2.69L43.90 2.69Q43.97 2.24 44.14 2.24L44.14 2.24L44.14 2.24Q44.35 2.17 45.01 2.27L45.01 2.27L45.01 2.27Q46.83 2.56 47.75 3.86L47.75 3.86L47.75 3.86Q48.05 4.28 48.05 4.82L48.05 4.82L48.05 4.82Q48.05 5.28 47.82 5.78ZM46.91 4.70L46.91 4.70L46.91 4.70Q46.98 4.14 46.44 3.82L46.44 3.82L46.44 3.82Q46.41 3.82 45.43 3.42L45.43 3.42L45.43 3.42Q45.58 5.99 45.53 7.03L45.53 7.03L45.53 7.03Q46.77 5.85 46.91 4.70Z"></path></g><!----><g data-v-423bf9ae="" id="7b8ad14e-e2e0-4215-91e6-296bb8e4eda0" transform="matrix(1.0570443895128039,0,0,1.0570443895128039,76.63656003897461,-2.4192168677119454)" stroke="none" fill="black"><path d="M62.496 2.433l-24.832 14.35L10.641 5.019V82.95l27.303 14.617L62.54 81.714l27.107 15.562V18.924L62.496 2.433zM36.734 91.147L15.73 79.902V12.786l21.004 9.144v69.217zm2.182-69.209L61.373 8.959v67.452L38.916 90.887V21.938zm45.643 66.547L63.555 76.429V9.03l21.004 12.758v66.697z"></path><path d="M30.939 37.205l-2.117-2.073-2.783 2.842-2.785-2.842-2.116 2.073 2.827 2.886-2.827 2.887 2.116 2.072 2.785-2.842 2.783 2.842 2.117-2.072-2.828-2.887zM39.44 71.406l-.409-2.143 1.071-.204c.109-.021.219-.044.327-.067l1.066-.233.466 2.131-1.065.233c-.128.027-.256.055-.384.078l-1.072.205zm-3.306 0l-1.075-.186c-.127-.021-.253-.045-.38-.069l-1.07-.207.414-2.142 1.071.207c.112.022.224.042.336.062l1.074.185-.37 2.15zm-5.56-1.534l-.971-.494c-.115-.059-.229-.117-.342-.179l-.961-.515 1.028-1.923.962.515c.1.054.201.106.303.158l.972.495-.991 1.943zm14.399-.324l-1.173-1.84.92-.586.289-.188.909-.602 1.204 1.818-.909.603c-.107.07-.213.14-.32.208l-.92.587zM25.698 66.84l-.802-.739a17.333 17.333 0 0 1-.279-.263l-.788-.754 1.508-1.575.788.754c.082.078.165.157.249.234l.802.739-1.478 1.604zm23.828-.678l-1.528-1.557.778-.764c.084-.082.167-.165.249-.248l.77-.772 1.546 1.539-.771.773-.266.264-.778.765zm-27.635-3.585l-1.37-2.146 1.84-1.172 1.368 2.144-1.838 1.174zm30.873.376l-1.74-1.315 1.52-2.029 1.752 1.299-.648.876c-.074.101-.149.2-.225.3l-.659.869zm9.209-2.34l-.326-2.157 1.078-.163c.1-.015.197-.033.295-.054l1.067-.226.452 2.133-1.066.227a7.75 7.75 0 0 1-.421.076l-1.079.164zm-3.295.175l-2.446-.722.622-2.091 2.436.719-.612 2.094zm8.84-2.25l-1.293-1.757.879-.646c.093-.068.186-.138.277-.208l.867-.66 1.321 1.735-.868.661-.305.229-.878.646zm-13.465.529l-2.307-1.097.943-1.966 2.29 1.087-.926 1.976zm2.933-1.998l-1.909-1.055.526-.954.168-.309.516-.961 1.922 1.031-.516.961-.18.331-.527.956zm-35.597.281l-2.128-.476.238-1.064a5.43 5.43 0 0 1 .116-.436l.322-1.043 2.084.645-.322 1.043c-.027.09-.051.18-.071.268l-.239 1.063zm26.915-1.719l-.878-.647-.305-.227-.868-.66 1.319-1.737.869.66.277.208.879.646-1.293 1.757zm23.514-.575L70.396 53.4l1.934-1.657 1.418 1.657-1.93 1.656zm-47.903-1.629l-1.585-1.498.749-.792c.063-.068.115-.131.165-.195l.667-.863 1.727 1.333-.667.862a4.492 4.492 0 0 1-.276.329l-.029.03-.751.794zm35.042-1.137l-2.092-.615.307-1.046.096-.333.291-1.051 2.102.582-.291 1.051c-.033.123-.068.245-.104.367l-.309 1.045zm-15.008-.496l-.621-.897c-.075-.109-.149-.22-.221-.33l-.592-.916 1.832-1.185.592.916c.06.092.121.184.183.274l.621.896-1.794 1.242zm32.067-.427l-1.612-1.469.735-.806c.077-.084.153-.17.229-.256l.721-.819 1.638 1.44-.72.819a13.71 13.71 0 0 1-.256.285l-.735.806zm-49.584-3.259l-2.124-.496.249-1.062c.03-.13.063-.26.097-.387l.283-1.053 2.106.565-.283 1.053c-.028.104-.054.211-.08.318l-.248 1.062zm33.73-1.394l-2.178-.105.053-1.089c.006-.116.011-.231.014-.348l.037-1.089 2.18.073-.036 1.09-.016.379-.054 1.089zm19.279-.185l-2.096-.604.301-1.048c.031-.104.059-.208.085-.314l.266-1.058 2.115.53-.265 1.058c-.033.13-.068.259-.104.387l-.302 1.049zm-38.034-.162l-.073-1.088a10.708 10.708 0 0 1-.02-.4l-.037-1.09 2.18-.073.037 1.089c.004.109.009.218.017.327l.073 1.088-2.177.147zm16.478-4.955l-.194-1.073-.063-.34-.211-1.07 2.14-.421.21 1.07c.025.125.049.249.071.374l.194 1.073-2.147.387zm-14.006-.245l-2.102-.584.292-1.05c.034-.122.068-.243.104-.364l.306-1.047 2.093.613-.306 1.046-.096.336-.291 1.05zm36.405-.292l-2.181-.032.033-2.542 2.181.025-.033 2.549zm-23.646-4.538l-.406-1.012c-.044-.108-.087-.216-.133-.324l-.419-1.006 2.014-.838.42 1.007c.048.116.096.232.142.348l.407 1.012-2.025.813zm-10.682-.588h-2.181V34.4l.089-.178c.053-.137.12-.279.201-.424l.531-.953 1.905 1.061-.53.953-.015.027v.863zm2.423-3.355l-1.156-1.85.926-.578c.111-.07.225-.139.337-.204l.94-.552 1.104 1.881-.94.552c-.095.056-.19.113-.286.173l-.925.578zm6.141-.371l-.922-.581a3.54 3.54 0 0 0-.24-.137l-.967-.506 1.012-1.933.967.506c.133.07.264.145.39.224l.923.582-1.163 1.845z"></path></g><!----><g data-v-423bf9ae="" id="59f15101-f753-4ae7-989f-68d8957013bb" fill="black" transform="matrix(0.46916072496898825,0,0,0.46916072496898825,33.29717353826089,215.08888446018628)"><path d="M7.28 9.34L7.28 9.34L7.28 9.34Q7.73 9.34 7.99 9.59L7.99 9.59L7.99 9.59Q8.25 9.84 8.25 10.29L8.25 10.29L8.25 10.29Q8.25 10.40 8.23 10.52L8.23 10.52L8.23 10.52Q8.22 10.64 8.18 10.72L8.18 10.72L8.18 10.72Q7.99 10.70 7.77 10.68L7.77 10.68L7.77 10.68Q7.55 10.65 7.24 10.65L7.24 10.65L7.24 10.65Q6.61 10.65 5.98 10.77L5.98 10.77L5.98 10.77Q5.35 10.88 4.77 10.95L4.77 10.95L4.77 10.95Q4.14 12.43 3.74 13.73L3.74 13.73L3.74 13.73Q3.33 15.04 3.11 16.31L3.11 16.31L3.11 16.31Q2.63 16.20 2.27 15.90L2.27 15.90L2.27 15.90Q1.90 15.61 1.58 15.08L1.58 15.08L1.58 15.08Q1.68 14.85 1.82 14.54L1.82 14.54L1.82 14.54Q1.96 14.22 2.16 13.74L2.16 13.74L2.16 13.74Q2.35 13.26 2.63 12.56L2.63 12.56L2.63 12.56Q2.90 11.87 3.28 10.91L3.28 10.91L3.28 10.91Q2.69 10.71 2.51 10.22L2.51 10.22L2.51 10.22Q2.58 10.15 2.90 10.06L2.90 10.06L2.90 10.06Q3.22 9.97 3.68 9.86L3.68 9.86L3.68 9.86Q3.89 9.31 4.05 8.88L4.05 8.88L4.05 8.88Q4.20 8.46 4.33 8.07L4.33 8.07L4.33 8.07Q4.45 7.69 4.56 7.32L4.56 7.32L4.56 7.32Q4.66 6.94 4.75 6.52L4.75 6.52L4.68 6.52L4.68 6.52Q4.14 6.52 3.81 6.27L3.81 6.27L3.81 6.27Q3.49 6.02 3.49 5.61L3.49 5.61L3.49 5.61Q3.49 5.50 3.52 5.35L3.52 5.35L3.52 5.35Q3.56 5.19 3.61 5.08L3.61 5.08L3.61 5.08Q3.88 5.12 4.14 5.14L4.14 5.14L4.14 5.14Q4.40 5.15 4.82 5.15L4.82 5.15L4.82 5.15Q5.70 5.15 6.47 5.10L6.47 5.10L6.47 5.10Q7.24 5.05 7.86 5.00L7.86 5.00L7.86 5.00Q8.48 4.94 8.93 4.89L8.93 4.89L8.93 4.89Q9.38 4.84 9.62 4.84L9.62 4.84L9.62 4.84Q9.94 4.84 10.19 5.18L10.19 5.18L10.19 5.18Q10.44 5.52 10.58 6.13L10.58 6.13L10.58 6.13Q10.14 6.09 9.86 6.08L9.86 6.08L9.86 6.08Q9.59 6.06 9.38 6.06L9.38 6.06L9.38 6.06Q8.67 6.06 8.07 6.13L8.07 6.13L8.07 6.13Q7.48 6.19 6.94 6.27L6.94 6.27L6.94 6.27Q6.86 6.40 6.75 6.59L6.75 6.59L6.75 6.59Q6.65 6.79 6.48 7.15L6.48 7.15L6.48 7.15Q6.31 7.50 6.05 8.08L6.05 8.08L6.05 8.08Q5.80 8.65 5.40 9.53L5.40 9.53L5.40 9.53Q5.95 9.45 6.45 9.39L6.45 9.39L6.45 9.39Q6.94 9.34 7.28 9.34ZM21.50 5.75L21.50 5.75L21.50 5.75Q20.89 6.58 20.38 7.57L20.38 7.57L20.38 7.57Q19.88 8.57 19.52 9.61L19.52 9.61L19.52 9.61Q19.17 10.65 18.98 11.67L18.98 11.67L18.98 11.67Q18.79 12.68 18.79 13.57L18.79 13.57L18.79 13.57Q18.79 14.66 19.11 15.15L19.11 15.15L19.11 15.15Q19.43 15.64 20.22 15.64L20.22 15.64L20.22 15.64Q21.13 15.64 21.81 15.00L21.81 15.00L21.81 15.00Q22.50 14.36 23.10 13.24L23.10 13.24L23.10 13.24Q23.49 12.52 23.77 11.65L23.77 11.65L23.77 11.65Q24.05 10.78 24.23 9.86L24.23 9.86L24.23 9.86Q24.40 8.95 24.49 8.02L24.49 8.02L24.49 8.02Q24.57 7.08 24.57 6.23L24.57 6.23L24.57 6.23Q24.57 5.68 24.56 5.43L24.56 5.43L24.56 5.43Q24.54 5.18 24.51 5.03L24.51 5.03L24.51 5.03Q24.56 5.03 24.72 5.05L24.72 5.05L24.72 5.05Q24.89 5.08 25.11 5.12L25.11 5.12L25.11 5.12Q25.33 5.17 25.54 5.24L25.54 5.24L25.54 5.24Q25.76 5.31 25.91 5.39L25.91 5.39L25.91 5.39Q25.84 6.45 25.66 7.59L25.66 7.59L25.66 7.59Q25.47 8.72 25.16 9.83L25.16 9.83L25.16 9.83Q24.85 10.93 24.44 11.96L24.44 11.96L24.44 11.96Q24.04 12.98 23.53 13.79L23.53 13.79L23.53 13.79Q22.79 14.99 21.87 15.67L21.87 15.67L21.87 15.67Q20.94 16.35 19.68 16.35L19.68 16.35L19.68 16.35Q18.40 16.35 17.68 15.60L17.68 15.60L17.68 15.60Q16.97 14.85 16.97 13.33L16.97 13.33L16.97 13.33Q16.97 12.45 17.16 11.33L17.16 11.33L17.16 11.33Q17.36 10.22 17.69 9.07L17.69 9.07L17.69 9.07Q18.02 7.91 18.45 6.81L18.45 6.81L18.45 6.81Q18.89 5.71 19.36 4.84L19.36 4.84L19.36 4.84Q19.60 4.86 19.92 4.94L19.92 4.94L19.92 4.94Q20.24 5.03 20.55 5.16L20.55 5.16L20.55 5.16Q20.86 5.29 21.12 5.45L21.12 5.45L21.12 5.45Q21.38 5.61 21.50 5.75ZM38.67 9.21L38.67 9.21L38.67 9.21Q39.13 9.21 39.39 9.46L39.39 9.46L39.39 9.46Q39.65 9.72 39.65 10.16L39.65 10.16L39.65 10.16Q39.65 10.28 39.63 10.39L39.63 10.39L39.63 10.39Q39.61 10.51 39.58 10.60L39.58 10.60L39.58 10.60Q39.40 10.57 39.17 10.55L39.17 10.55L39.17 10.55Q38.95 10.53 38.64 10.53L38.64 10.53L38.64 10.53Q38.04 10.53 37.42 10.63L37.42 10.63L37.42 10.63Q36.81 10.74 36.25 10.81L36.25 10.81L36.25 10.81Q35.92 11.55 35.66 12.24L35.66 12.24L35.66 12.24Q35.39 12.94 35.20 13.51L35.20 13.51L35.20 13.51Q35.01 14.08 34.91 14.50L34.91 14.50L34.91 14.50Q34.80 14.92 34.79 15.13L34.79 15.13L34.79 15.13Q35.92 14.90 37.08 14.73L37.08 14.73L37.08 14.73Q38.23 14.56 39.51 14.48L39.51 14.48L39.51 14.48Q39.66 14.71 39.77 14.99L39.77 14.99L39.77 14.99Q39.87 15.27 39.87 15.60L39.87 15.60L39.87 15.60Q39.87 15.68 39.87 15.78L39.87 15.78L39.87 15.78Q39.87 15.88 39.84 15.97L39.84 15.97L39.84 15.97Q39.45 15.96 39.02 15.95L39.02 15.95L39.02 15.95Q38.58 15.95 37.88 15.95L37.88 15.95L37.88 15.95Q37.42 15.95 37.01 15.97L37.01 15.97L37.01 15.97Q36.60 15.99 36.18 16.03L36.18 16.03L36.18 16.03Q35.76 16.07 35.29 16.14L35.29 16.14L35.29 16.14Q34.82 16.21 34.23 16.31L34.23 16.31L34.23 16.31Q33.59 16.06 32.98 15.08L32.98 15.08L32.98 15.08Q33.22 14.57 33.65 13.54L33.65 13.54L33.65 13.54Q34.08 12.52 34.73 10.79L34.73 10.79L34.73 10.79Q34.10 10.60 33.91 10.09L33.91 10.09L33.91 10.09Q33.98 10.02 34.31 9.92L34.31 9.92L34.31 9.92Q34.65 9.81 35.14 9.70L35.14 9.70L35.14 9.70Q35.35 9.16 35.50 8.75L35.50 8.75L35.50 8.75Q35.64 8.34 35.76 7.99L35.76 7.99L35.76 7.99Q35.87 7.63 35.96 7.29L35.96 7.29L35.96 7.29Q36.05 6.94 36.13 6.54L36.13 6.54L36.13 6.54Q35.64 6.51 35.36 6.27L35.36 6.27L35.36 6.27Q35.08 6.02 35.08 5.63L35.08 5.63L35.08 5.63Q35.08 5.52 35.12 5.36L35.12 5.36L35.12 5.36Q35.15 5.21 35.20 5.10L35.20 5.10L35.20 5.10Q35.48 5.14 35.73 5.15L35.73 5.15L35.73 5.15Q35.99 5.17 36.41 5.17L36.41 5.17L36.41 5.17Q37.30 5.17 38.07 5.12L38.07 5.12L38.07 5.12Q38.84 5.07 39.46 5.01L39.46 5.01L39.46 5.01Q40.08 4.96 40.53 4.91L40.53 4.91L40.53 4.91Q40.98 4.86 41.22 4.86L41.22 4.86L41.22 4.86Q41.54 4.86 41.79 5.19L41.79 5.19L41.79 5.19Q42.04 5.53 42.17 6.15L42.17 6.15L42.17 6.15Q41.73 6.10 41.46 6.09L41.46 6.09L41.46 6.09Q41.19 6.08 40.98 6.08L40.98 6.08L40.98 6.08Q40.21 6.08 39.57 6.15L39.57 6.15L39.57 6.15Q38.93 6.23 38.35 6.31L38.35 6.31L38.35 6.31Q38.26 6.44 38.16 6.64L38.16 6.64L38.16 6.64Q38.05 6.83 37.88 7.18L37.88 7.18L37.88 7.18Q37.72 7.53 37.47 8.06L37.47 8.06L37.47 8.06Q37.23 8.60 36.88 9.39L36.88 9.39L36.88 9.39Q37.41 9.31 37.88 9.26L37.88 9.26L37.88 9.26Q38.35 9.21 38.67 9.21ZM53.62 14.38L53.62 14.38L53.62 14.38Q53.97 14.98 53.97 15.54L53.97 15.54L53.97 15.54Q53.97 15.67 53.95 15.77L53.95 15.77L53.95 15.77Q53.93 15.88 53.90 15.99L53.90 15.99L53.90 15.99Q53.66 15.96 53.40 15.95L53.40 15.95L53.40 15.95Q53.14 15.93 52.86 15.93L52.86 15.93L52.86 15.93Q52.53 15.93 52.19 15.95L52.19 15.95L52.19 15.95Q51.84 15.97 51.42 16.02L51.42 16.02L51.42 16.02Q51.00 16.06 50.48 16.13L50.48 16.13L50.48 16.13Q49.97 16.20 49.28 16.31L49.28 16.31L49.28 16.31Q48.96 16.20 48.64 15.87L48.64 15.87L48.64 15.87Q48.31 15.54 48.03 15.08L48.03 15.08L48.03 15.08Q48.17 14.77 48.38 14.31L48.38 14.31L48.38 14.31Q48.59 13.86 48.87 13.21L48.87 13.21L48.87 13.21Q49.15 12.56 49.50 11.68L49.50 11.68L49.50 11.68Q49.84 10.81 50.23 9.66L50.23 9.66L50.23 9.66Q50.48 8.90 50.67 8.33L50.67 8.33L50.67 8.33Q50.85 7.76 51.00 7.22L51.00 7.22L51.00 7.22Q51.14 6.68 51.28 6.09L51.28 6.09L51.28 6.09Q51.42 5.50 51.59 4.73L51.59 4.73L51.59 4.73Q52.15 4.84 52.56 5.14L52.56 5.14L52.56 5.14Q52.98 5.45 53.35 6.01L53.35 6.01L53.35 6.01Q53.24 6.19 53.06 6.59L53.06 6.59L53.06 6.59Q52.88 7 52.63 7.58L52.63 7.58L52.63 7.58Q52.39 8.16 52.09 8.90L52.09 8.90L52.09 8.90Q51.80 9.63 51.48 10.47L51.48 10.47L51.48 10.47Q51.17 11.30 50.88 12.03L50.88 12.03L50.88 12.03Q50.58 12.75 50.35 13.34L50.35 13.34L50.35 13.34Q50.12 13.93 49.98 14.35L49.98 14.35L49.98 14.35Q49.84 14.77 49.84 14.98L49.84 14.98L49.84 14.98Q50.06 14.97 50.25 14.95L50.25 14.95L50.25 14.95Q50.43 14.94 50.62 14.90L50.62 14.90L50.62 14.90Q50.82 14.87 51.05 14.82L51.05 14.82L51.05 14.82Q51.28 14.77 51.60 14.69L51.60 14.69L51.60 14.69Q51.88 14.62 52.12 14.57L52.12 14.57L52.12 14.57Q52.36 14.52 52.59 14.48L52.59 14.48L52.59 14.48Q52.82 14.45 53.07 14.43L53.07 14.43L53.07 14.43Q53.31 14.41 53.62 14.38ZM77.91 10.35L77.91 10.35L77.91 10.35Q78.96 9.20 79.79 7.91L79.79 7.91L79.79 7.91Q80.63 6.62 81.34 5.01L81.34 5.01L81.34 5.01Q81.70 5.05 82.04 5.21L82.04 5.21L82.04 5.21Q82.38 5.36 82.57 5.56L82.57 5.56L82.57 5.56Q81.80 6.48 81.18 7.24L81.18 7.24L81.18 7.24Q80.56 7.99 80.04 8.66L80.04 8.66L80.04 8.66Q79.52 9.32 79.08 9.93L79.08 9.93L79.08 9.93Q78.64 10.54 78.22 11.16L78.22 11.16L78.22 11.16Q78.01 11.87 77.83 12.60L77.83 12.60L77.83 12.60Q77.64 13.33 77.50 13.99L77.50 13.99L77.50 13.99Q77.36 14.66 77.29 15.22L77.29 15.22L77.29 15.22Q77.21 15.79 77.21 16.20L77.21 16.20L77.21 16.20Q77.06 16.20 76.72 16.14L76.72 16.14L76.72 16.14Q76.38 16.07 76.03 15.99L76.03 15.99L76.03 15.99Q75.68 15.90 75.40 15.82L75.40 15.82L75.40 15.82Q75.11 15.74 75.05 15.68L75.05 15.68L75.05 15.68Q75.28 15.30 75.50 14.75L75.50 14.75L75.50 14.75Q75.71 14.20 75.92 13.59L75.92 13.59L75.92 13.59Q76.13 12.98 76.33 12.36L76.33 12.36L76.33 12.36Q76.52 11.73 76.69 11.20L76.69 11.20L76.69 11.20Q76.34 10.11 76.01 9.15L76.01 9.15L76.01 9.15Q75.68 8.19 75.38 7.41L75.38 7.41L75.38 7.41Q75.07 6.64 74.79 6.08L74.79 6.08L74.79 6.08Q74.51 5.52 74.26 5.22L74.26 5.22L74.26 5.22Q74.40 5.17 74.68 5.11L74.68 5.11L74.68 5.11Q74.97 5.05 75.31 5.00L75.31 5.00L75.31 5.00Q75.66 4.94 76.01 4.91L76.01 4.91L76.01 4.91Q76.37 4.87 76.65 4.86L76.65 4.86L76.65 4.86Q76.65 5.21 76.71 5.71L76.71 5.71L76.71 5.71Q76.78 6.22 76.88 6.79L76.88 6.79L76.88 6.79Q76.99 7.36 77.13 7.95L77.13 7.95L77.13 7.95Q77.27 8.54 77.41 9.03L77.41 9.03L77.41 9.03Q77.55 9.52 77.68 9.88L77.68 9.88L77.68 9.88Q77.81 10.23 77.91 10.35ZM94.56 4.98L94.56 4.98L94.56 4.98Q94.82 5.10 95.10 5.27L95.10 5.27L95.10 5.27Q95.38 5.45 95.62 5.63L95.62 5.63L95.62 5.63Q95.86 5.81 96.02 5.98L96.02 5.98L96.02 5.98Q96.18 6.16 96.19 6.27L96.19 6.27L96.19 6.27Q95.96 6.22 95.72 6.20L95.72 6.20L95.72 6.20Q95.48 6.17 95.28 6.17L95.28 6.17L95.28 6.17Q94.65 6.17 94.03 6.48L94.03 6.48L94.03 6.48Q93.41 6.79 92.85 7.32L92.85 7.32L92.85 7.32Q92.29 7.85 91.81 8.57L91.81 8.57L91.81 8.57Q91.34 9.28 90.99 10.09L90.99 10.09L90.99 10.09Q90.65 10.91 90.45 11.77L90.45 11.77L90.45 11.77Q90.26 12.64 90.26 13.48L90.26 13.48L90.26 13.48Q90.26 14.57 90.62 15.11L90.62 15.11L90.62 15.11Q90.99 15.64 91.69 15.64L91.69 15.64L91.69 15.64Q92.02 15.64 92.41 15.51L92.41 15.51L92.41 15.51Q92.81 15.37 93.21 15.13L93.21 15.13L93.21 15.13Q93.62 14.90 94.01 14.56L94.01 14.56L94.01 14.56Q94.40 14.22 94.74 13.82L94.74 13.82L94.74 13.82Q95.23 13.23 95.62 12.48L95.62 12.48L95.62 12.48Q96.01 11.73 96.28 10.89L96.28 10.89L96.28 10.89Q96.56 10.05 96.70 9.16L96.70 9.16L96.70 9.16Q96.85 8.27 96.85 7.42L96.85 7.42L96.85 7.42Q96.85 7.08 96.84 6.85L96.84 6.85L96.84 6.85Q96.82 6.62 96.80 6.46L96.80 6.46L96.80 6.46Q96.78 6.30 96.77 6.20L96.77 6.20L96.77 6.20Q96.75 6.10 96.74 6.03L96.74 6.03L96.74 6.03Q96.91 6.12 97.11 6.24L97.11 6.24L97.11 6.24Q97.31 6.36 97.49 6.59L97.49 6.59L97.49 6.59Q97.66 6.82 97.78 7.20L97.78 7.20L97.78 7.20Q97.90 7.57 97.90 8.18L97.90 8.18L97.90 8.18Q97.90 9.16 97.67 10.10L97.67 10.10L97.67 10.10Q97.44 11.05 97.03 11.90L97.03 11.90L97.03 11.90Q96.61 12.75 96.05 13.50L96.05 13.50L96.05 13.50Q95.49 14.24 94.85 14.80L94.85 14.80L94.85 14.80Q94.01 15.54 93.06 15.95L93.06 15.95L93.06 15.95Q92.11 16.35 91.22 16.35L91.22 16.35L91.22 16.35Q89.94 16.35 89.26 15.53L89.26 15.53L89.26 15.53Q88.58 14.71 88.58 13.12L88.58 13.12L88.58 13.12Q88.58 12.26 88.77 11.31L88.77 11.31L88.77 11.31Q88.96 10.36 89.30 9.44L89.30 9.44L89.30 9.44Q89.64 8.51 90.12 7.68L90.12 7.68L90.12 7.68Q90.59 6.85 91.16 6.21L91.16 6.21L91.16 6.21Q91.73 5.57 92.38 5.19L92.38 5.19L92.38 5.19Q93.03 4.82 93.72 4.82L93.72 4.82L93.72 4.82Q93.94 4.82 94.14 4.85L94.14 4.85L94.14 4.85Q94.33 4.89 94.56 4.98ZM110.60 5.75L110.60 5.75L110.60 5.75Q109.98 6.58 109.48 7.57L109.48 7.57L109.48 7.57Q108.98 8.57 108.62 9.61L108.62 9.61L108.62 9.61Q108.26 10.65 108.07 11.67L108.07 11.67L108.07 11.67Q107.88 12.68 107.88 13.57L107.88 13.57L107.88 13.57Q107.88 14.66 108.21 15.15L108.21 15.15L108.21 15.15Q108.53 15.64 109.31 15.64L109.31 15.64L109.31 15.64Q110.22 15.64 110.91 15.00L110.91 15.00L110.91 15.00Q111.59 14.36 112.20 13.24L112.20 13.24L112.20 13.24Q112.59 12.52 112.87 11.65L112.87 11.65L112.87 11.65Q113.15 10.78 113.32 9.86L113.32 9.86L113.32 9.86Q113.50 8.95 113.58 8.02L113.58 8.02L113.58 8.02Q113.67 7.08 113.67 6.23L113.67 6.23L113.67 6.23Q113.67 5.68 113.65 5.43L113.65 5.43L113.65 5.43Q113.64 5.18 113.61 5.03L113.61 5.03L113.61 5.03Q113.65 5.03 113.82 5.05L113.82 5.05L113.82 5.05Q113.99 5.08 114.20 5.12L114.20 5.12L114.20 5.12Q114.42 5.17 114.64 5.24L114.64 5.24L114.64 5.24Q114.86 5.31 115.01 5.39L115.01 5.39L115.01 5.39Q114.94 6.45 114.75 7.59L114.75 7.59L114.75 7.59Q114.56 8.72 114.25 9.83L114.25 9.83L114.25 9.83Q113.95 10.93 113.54 11.96L113.54 11.96L113.54 11.96Q113.13 12.98 112.63 13.79L112.63 13.79L112.63 13.79Q111.89 14.99 110.96 15.67L110.96 15.67L110.96 15.67Q110.04 16.35 108.78 16.35L108.78 16.35L108.78 16.35Q107.49 16.35 106.78 15.60L106.78 15.60L106.78 15.60Q106.06 14.85 106.06 13.33L106.06 13.33L106.06 13.33Q106.06 12.45 106.26 11.33L106.26 11.33L106.26 11.33Q106.46 10.22 106.78 9.07L106.78 9.07L106.78 9.07Q107.11 7.91 107.55 6.81L107.55 6.81L107.55 6.81Q107.98 5.71 108.46 4.84L108.46 4.84L108.46 4.84Q108.70 4.86 109.02 4.94L109.02 4.94L109.02 4.94Q109.34 5.03 109.65 5.16L109.65 5.16L109.65 5.16Q109.96 5.29 110.22 5.45L110.22 5.45L110.22 5.45Q110.47 5.61 110.60 5.75ZM131.50 7.46L131.50 7.46L131.50 7.46Q131.50 8.13 131.20 8.73L131.20 8.73L131.20 8.73Q130.90 9.32 130.37 9.79L130.37 9.79L130.37 9.79Q129.84 10.26 129.12 10.58L129.12 10.58L129.12 10.58Q128.41 10.91 127.57 11.02L127.57 11.02L127.57 11.02Q127.78 11.65 128.08 12.31L128.08 12.31L128.08 12.31Q128.38 12.98 128.73 13.59L128.73 13.59L128.73 13.59Q129.08 14.21 129.46 14.73L129.46 14.73L129.46 14.73Q129.84 15.25 130.20 15.58L130.20 15.58L130.20 15.58Q130.13 15.72 130.00 15.86L130.00 15.86L130.00 15.86Q129.86 16.00 129.69 16.12L129.69 16.12L129.69 16.12Q129.51 16.24 129.32 16.32L129.32 16.32L129.32 16.32Q129.14 16.39 128.97 16.39L128.97 16.39L128.97 16.39Q128.66 16.39 128.38 16.10L128.38 16.10L128.38 16.10Q128.10 15.81 127.81 15.17L127.81 15.17L127.81 15.17Q127.53 14.53 127.21 13.52L127.21 13.52L127.21 13.52Q126.90 12.50 126.52 11.07L126.52 11.07L126.52 11.07Q126.36 11.07 126.21 11.07L126.21 11.07L126.21 11.07Q126.06 11.07 125.97 11.05L125.97 11.05L125.97 11.05Q125.87 10.99 125.76 10.85L125.76 10.85L125.76 10.85Q125.38 11.66 125.09 12.38L125.09 12.38L125.09 12.38Q124.80 13.09 124.56 13.76L124.56 13.76L124.56 13.76Q124.33 14.42 124.16 15.04L124.16 15.04L124.16 15.04Q123.98 15.67 123.86 16.31L123.86 16.31L123.86 16.31Q123.38 16.20 123.03 15.90L123.03 15.90L123.03 15.90Q122.68 15.61 122.37 15.08L122.37 15.08L122.37 15.08Q122.43 14.95 122.49 14.83L122.49 14.83L122.49 14.83Q122.56 14.71 122.65 14.50L122.65 14.50L122.65 14.50Q122.75 14.28 122.90 13.94L122.90 13.94L122.90 13.94Q123.05 13.61 123.29 13.05L123.29 13.05L123.29 13.05Q123.54 12.49 123.88 11.68L123.88 11.68L123.88 11.68Q124.22 10.86 124.71 9.70L124.71 9.70L124.71 9.70Q124.94 9.18 125.10 8.79L125.10 8.79L125.10 8.79Q125.26 8.40 125.38 8.04L125.38 8.04L125.38 8.04Q125.51 7.69 125.61 7.33L125.61 7.33L125.61 7.33Q125.72 6.97 125.83 6.51L125.83 6.51L125.83 6.51Q125.19 6.73 124.63 7.01L124.63 7.01L124.63 7.01Q124.08 7.28 123.72 7.59L123.72 7.59L123.72 7.59Q123.59 7.50 123.46 7.34L123.46 7.34L123.46 7.34Q123.33 7.17 123.21 6.96L123.21 6.96L123.21 6.96Q123.10 6.76 123.02 6.55L123.02 6.55L123.02 6.55Q122.93 6.34 122.92 6.17L122.92 6.17L122.92 6.17Q123.34 5.89 123.95 5.66L123.95 5.66L123.95 5.66Q124.56 5.42 125.24 5.24L125.24 5.24L125.24 5.24Q125.93 5.07 126.64 4.97L126.64 4.97L126.64 4.97Q127.36 4.87 127.97 4.87L127.97 4.87L127.97 4.87Q129.65 4.87 130.58 5.56L130.58 5.56L130.58 5.56Q131.50 6.26 131.50 7.46ZM127.92 6.02L128.09 6.29L128.09 6.29Q127.99 6.41 127.78 6.79L127.78 6.79L127.78 6.79Q127.57 7.17 127.30 7.69L127.30 7.69L127.30 7.69Q127.02 8.22 126.72 8.83L126.72 8.83L126.72 8.83Q126.42 9.45 126.14 10.05L126.14 10.05L126.14 10.05Q127.19 10.05 128.07 9.86L128.07 9.86L128.07 9.86Q128.95 9.66 129.60 9.30L129.60 9.30L129.60 9.30Q130.24 8.95 130.60 8.46L130.60 8.46L130.60 8.46Q130.96 7.98 130.96 7.39L130.96 7.39L130.96 7.39Q130.96 6.69 130.45 6.32L130.45 6.32L130.45 6.32Q129.95 5.95 128.90 5.95L128.90 5.95L128.90 5.95Q128.66 5.95 128.42 5.97L128.42 5.97L128.42 5.97Q128.18 5.99 127.92 6.02L127.92 6.02ZM158.52 7.63L158.52 7.63L158.52 7.63Q158.52 8.40 158.14 9.10L158.14 9.10L158.14 9.10Q157.75 9.80 157.10 10.32L157.10 10.32L157.10 10.32Q156.45 10.85 155.57 11.16L155.57 11.16L155.57 11.16Q154.70 11.47 153.72 11.47L153.72 11.47L153.72 11.47Q153.37 11.47 153.17 11.38L153.17 11.38L153.17 11.38Q152.96 11.28 152.71 11.02L152.71 11.02L152.71 11.02Q152.01 12.54 151.57 13.82L151.57 13.82L151.57 13.82Q151.13 15.11 150.88 16.31L150.88 16.31L150.88 16.31Q150.35 16.18 150.01 15.87L150.01 15.87L150.01 15.87Q149.67 15.55 149.39 15.08L149.39 15.08L149.39 15.08Q149.53 14.81 149.73 14.38L149.73 14.38L149.73 14.38Q149.93 13.94 150.21 13.31L150.21 13.31L150.21 13.31Q150.49 12.67 150.86 11.78L150.86 11.78L150.86 11.78Q151.23 10.89 151.73 9.70L151.73 9.70L151.73 9.70Q151.96 9.16 152.12 8.75L152.12 8.75L152.12 8.75Q152.29 8.34 152.42 7.99L152.42 7.99L152.42 7.99Q152.54 7.63 152.65 7.28L152.65 7.28L152.65 7.28Q152.75 6.93 152.87 6.51L152.87 6.51L152.87 6.51Q152.21 6.72 151.65 7L151.65 7L151.65 7Q151.10 7.28 150.74 7.59L150.74 7.59L150.74 7.59Q150.61 7.50 150.48 7.34L150.48 7.34L150.48 7.34Q150.35 7.17 150.23 6.96L150.23 6.96L150.23 6.96Q150.12 6.76 150.04 6.55L150.04 6.55L150.04 6.55Q149.95 6.34 149.94 6.17L149.94 6.17L149.94 6.17Q150.35 5.89 150.95 5.66L150.95 5.66L150.95 5.66Q151.55 5.42 152.24 5.24L152.24 5.24L152.24 5.24Q152.92 5.07 153.66 4.97L153.66 4.97L153.66 4.97Q154.39 4.87 155.06 4.87L155.06 4.87L155.06 4.87Q155.86 4.87 156.51 5.07L156.51 5.07L156.51 5.07Q157.15 5.28 157.60 5.64L157.60 5.64L157.60 5.64Q158.05 6.01 158.28 6.51L158.28 6.51L158.28 6.51Q158.52 7.01 158.52 7.63ZM156.03 5.95L156.03 5.95L156.03 5.95Q155.50 5.95 154.94 6.03L154.94 6.03L155.11 6.29L155.11 6.29Q154.97 6.47 154.76 6.83L154.76 6.83L154.76 6.83Q154.55 7.20 154.29 7.71L154.29 7.71L154.29 7.71Q154.04 8.22 153.74 8.85L153.74 8.85L153.74 8.85Q153.44 9.48 153.10 10.18L153.10 10.18L153.10 10.18Q154.20 10.18 155.09 9.97L155.09 9.97L155.09 9.97Q155.99 9.77 156.62 9.41L156.62 9.41L156.62 9.41Q157.26 9.06 157.62 8.58L157.62 8.58L157.62 8.58Q157.98 8.11 157.98 7.56L157.98 7.56L157.98 7.56Q157.98 6.83 157.49 6.39L157.49 6.39L157.49 6.39Q157.00 5.95 156.03 5.95ZM165.61 16.24L165.61 16.24L165.61 16.24Q164.93 16.04 164.67 15.85L164.67 15.85L164.67 15.85Q164.42 15.65 164.42 15.36L164.42 15.36L164.42 15.36Q164.42 15.13 164.54 14.73L164.54 14.73L164.54 14.73Q164.67 14.32 164.91 13.77L164.91 13.77L164.91 13.77Q165.16 13.22 165.50 12.54L165.50 12.54L165.50 12.54Q165.84 11.87 166.28 11.10L166.28 11.10L166.28 11.10Q165.91 11.09 165.63 11.08L165.63 11.08L165.63 11.08Q165.34 11.07 165.16 11.07L165.16 11.07L165.16 11.07Q165.24 10.86 165.63 10.71L165.63 10.71L165.63 10.71Q166.03 10.56 166.67 10.44L166.67 10.44L166.67 10.44Q167.22 9.53 167.84 8.71L167.84 8.71L167.84 8.71Q168.46 7.88 169.09 7.19L169.09 7.19L169.09 7.19Q169.72 6.50 170.35 5.97L170.35 5.97L170.35 5.97Q170.98 5.45 171.56 5.14L171.56 5.14L171.56 5.14Q171.57 5.04 171.58 4.97L171.58 4.97L171.58 4.97Q171.58 4.90 171.58 4.87L171.58 4.87L171.58 4.87Q171.78 4.87 172.11 4.97L172.11 4.97L172.11 4.97Q172.44 5.07 172.75 5.21L172.75 5.21L172.75 5.21Q173.07 5.35 173.31 5.49L173.31 5.49L173.31 5.49Q173.56 5.64 173.59 5.74L173.59 5.74L173.59 5.74Q173.12 6.55 172.68 8.17L172.68 8.17L172.68 8.17Q172.23 9.79 171.93 12.04L171.93 12.04L171.93 12.04Q171.86 12.60 171.81 13.31L171.81 13.31L171.81 13.31Q171.77 14.03 171.77 14.91L171.77 14.91L171.77 14.91Q171.77 15.22 171.77 15.54L171.77 15.54L171.77 15.54Q171.77 15.86 171.79 16.21L171.79 16.21L171.79 16.21Q171.77 16.23 171.74 16.23L171.74 16.23L171.74 16.23Q171.71 16.23 171.63 16.23L171.63 16.23L171.63 16.23Q171.43 16.23 171.17 16.16L171.17 16.16L171.17 16.16Q170.91 16.10 170.67 16.01L170.67 16.01L170.67 16.01Q170.42 15.92 170.25 15.81L170.25 15.81L170.25 15.81Q170.07 15.69 170.03 15.61L170.03 15.61L170.03 15.61Q170.02 15.43 170.02 15.25L170.02 15.25L170.02 15.25Q170.02 15.08 170.02 14.88L170.02 14.88L170.02 14.88Q170.02 14.01 170.08 13.12L170.08 13.12L170.08 13.12Q170.14 12.22 170.30 11.27L170.30 11.27L170.30 11.27Q170.10 11.26 169.78 11.23L169.78 11.23L169.78 11.23Q169.46 11.21 169.06 11.20L169.06 11.20L169.06 11.20Q168.66 11.19 168.20 11.16L168.20 11.16L168.20 11.16Q167.75 11.14 167.31 11.13L167.31 11.13L167.31 11.13Q166.98 11.76 166.68 12.38L166.68 12.38L166.68 12.38Q166.39 13.01 166.18 13.64L166.18 13.64L166.18 13.64Q165.94 14.31 165.79 14.98L165.79 14.98L165.79 14.98Q165.65 15.65 165.61 16.24ZM171.01 7.83L171.01 7.83L171.01 7.83Q171.07 7.63 171.14 7.29L171.14 7.29L171.14 7.29Q171.22 6.94 171.29 6.57L171.29 6.57L171.29 6.57Q170.94 6.69 170.51 7.03L170.51 7.03L170.51 7.03Q170.09 7.36 169.63 7.86L169.63 7.86L169.63 7.86Q169.18 8.36 168.71 8.98L168.71 8.98L168.71 8.98Q168.24 9.60 167.80 10.30L167.80 10.30L167.80 10.30Q168.98 10.21 170.48 10.18L170.48 10.18L170.48 10.18Q170.59 9.59 170.72 9.01L170.72 9.01L170.72 9.01Q170.86 8.43 171.01 7.83ZM182.21 16.24L182.21 16.24L182.21 16.24Q181.41 16.00 181.13 15.79L181.13 15.79L181.13 15.79Q180.85 15.57 180.85 15.19L180.85 15.19L180.85 15.19Q180.85 14.77 181.05 14.01L181.05 14.01L181.05 14.01Q181.24 13.24 181.56 12.31L181.56 12.31L181.56 12.31Q181.87 11.37 182.28 10.35L182.28 10.35L182.28 10.35Q182.69 9.32 183.11 8.39L183.11 8.39L183.11 8.39Q183.53 7.45 183.92 6.67L183.92 6.67L183.92 6.67Q184.32 5.89 184.63 5.46L184.63 5.46L184.53 4.87L184.53 4.87Q184.73 4.87 185.08 4.97L185.08 4.97L185.08 4.97Q185.43 5.07 185.79 5.21L185.79 5.21L185.79 5.21Q186.14 5.35 186.42 5.49L186.42 5.49L186.42 5.49Q186.69 5.64 186.72 5.74L186.72 5.74L186.72 5.74Q186.65 6.08 186.61 6.76L186.61 6.76L186.61 6.76Q186.56 7.43 186.56 8.20L186.56 8.20L186.56 8.20Q186.56 9.73 186.68 11.19L186.68 11.19L186.68 11.19Q186.80 12.66 187.24 14.17L187.24 14.17L187.24 14.17Q187.46 13.05 187.72 11.94L187.72 11.94L187.72 11.94Q187.98 10.82 188.26 9.81L188.26 9.81L188.26 9.81Q188.54 8.79 188.82 7.92L188.82 7.92L188.82 7.92Q189.10 7.06 189.36 6.40L189.36 6.40L189.36 6.40Q189.62 5.75 189.84 5.38L189.84 5.38L189.84 5.38Q190.06 5.01 190.25 4.98L190.25 4.98L190.25 4.98Q190.40 5.01 190.58 5.10L190.58 5.10L190.58 5.10Q190.76 5.19 190.93 5.32L190.93 5.32L190.93 5.32Q191.10 5.45 191.24 5.60L191.24 5.60L191.24 5.60Q191.38 5.75 191.46 5.91L191.46 5.91L191.46 5.91Q191.02 6.09 190.57 6.76L190.57 6.76L190.57 6.76Q190.13 7.43 189.73 8.39L189.73 8.39L189.73 8.39Q189.34 9.35 188.99 10.47L188.99 10.47L188.99 10.47Q188.65 11.59 188.39 12.68L188.39 12.68L188.39 12.68Q188.13 13.76 187.98 14.69L187.98 14.69L187.98 14.69Q187.84 15.61 187.82 16.17L187.82 16.17L187.82 16.17Q187.82 16.20 187.84 16.21L187.84 16.21L187.84 16.21Q187.80 16.23 187.75 16.23L187.75 16.23L187.75 16.23Q187.70 16.23 187.66 16.23L187.66 16.23L187.66 16.23Q187.01 16.23 186.51 16.07L186.51 16.07L186.51 16.07Q186.02 15.90 185.86 15.61L185.86 15.61L185.86 15.61Q185.57 14.43 185.37 13.34L185.37 13.34L185.37 13.34Q185.18 12.25 185.04 11.16L185.04 11.16L185.04 11.16Q184.91 10.07 184.83 8.95L184.83 8.95L184.83 8.95Q184.76 7.84 184.72 6.62L184.72 6.62L184.72 6.62Q184.45 7.04 184.16 7.72L184.16 7.72L184.16 7.72Q183.86 8.40 183.58 9.21L183.58 9.21L183.58 9.21Q183.30 10.02 183.04 10.92L183.04 10.92L183.04 10.92Q182.78 11.82 182.59 12.67L182.59 12.67L182.59 12.67Q182.39 13.52 182.28 14.29L182.28 14.29L182.28 14.29Q182.17 15.05 182.17 15.61L182.17 15.61L182.17 15.61Q182.17 15.90 182.17 16.03L182.17 16.03L182.17 16.03Q182.18 16.16 182.21 16.24ZM198.46 14.45L198.46 14.45L198.46 14.45Q198.67 13.99 198.97 13.26L198.97 13.26L198.97 13.26Q199.26 12.53 199.58 11.68L199.58 11.68L199.58 11.68Q199.91 10.84 200.24 9.95L200.24 9.95L200.24 9.95Q200.58 9.06 200.87 8.26L200.87 8.26L200.87 8.26Q201.17 7.46 201.38 6.83L201.38 6.83L201.38 6.83Q201.60 6.20 201.70 5.87L201.70 5.87L201.70 5.87Q200.82 6.23 200.19 6.97L200.19 6.97L200.19 6.97Q199.56 7.71 199.23 8.83L199.23 8.83L199.23 8.83Q198.91 8.72 198.65 8.43L198.65 8.43L198.65 8.43Q198.38 8.15 198.30 7.71L198.30 7.71L198.30 7.71Q198.44 7.07 198.82 6.54L198.82 6.54L198.82 6.54Q199.21 6.01 199.79 5.63L199.79 5.63L199.79 5.63Q200.38 5.25 201.15 5.05L201.15 5.05L201.15 5.05Q201.92 4.84 202.80 4.84L202.80 4.84L202.80 4.84Q203.92 4.84 204.86 5.17L204.86 5.17L204.86 5.17Q205.80 5.50 206.47 6.09L206.47 6.09L206.47 6.09Q207.14 6.68 207.52 7.50L207.52 7.50L207.52 7.50Q207.90 8.33 207.90 9.34L207.90 9.34L207.90 9.34Q207.90 10.71 207.40 11.96L207.40 11.96L207.40 11.96Q206.89 13.20 206.03 14.15L206.03 14.15L206.03 14.15Q205.17 15.11 204.04 15.67L204.04 15.67L204.04 15.67Q202.90 16.24 201.66 16.24L201.66 16.24L201.66 16.24Q200.51 16.24 199.69 15.79L199.69 15.79L199.69 15.79Q198.87 15.33 198.46 14.45ZM203.41 5.54L203.41 5.54L203.41 5.54Q202.71 5.54 202.08 5.74L202.08 5.74L202.08 5.74Q202.69 5.96 203.10 6.21L203.10 6.21L203.10 6.21Q203.50 6.45 203.66 6.59L203.66 6.59L203.66 6.59Q203.55 6.75 203.33 7.14L203.33 7.14L203.33 7.14Q203.11 7.53 202.82 8.09L202.82 8.09L202.82 8.09Q202.54 8.65 202.22 9.32L202.22 9.32L202.22 9.32Q201.89 9.98 201.59 10.68L201.59 10.68L201.59 10.68Q200.79 12.46 200.43 13.48L200.43 13.48L200.43 13.48Q200.07 14.50 200.07 14.90L200.07 14.90L200.07 14.90Q200.27 14.97 200.55 14.99L200.55 14.99L200.55 14.99Q200.83 15.02 201.15 15.02L201.15 15.02L201.15 15.02Q202.29 15.02 203.30 14.50L203.30 14.50L203.30 14.50Q204.32 13.97 205.08 13.09L205.08 13.09L205.08 13.09Q205.84 12.21 206.28 11.04L206.28 11.04L206.28 11.04Q206.72 9.87 206.72 8.58L206.72 8.58L206.72 8.58Q206.72 7.14 205.83 6.34L205.83 6.34L205.83 6.34Q204.93 5.54 203.41 5.54ZM221.20 9.21L221.20 9.21L221.20 9.21Q221.66 9.21 221.92 9.46L221.92 9.46L221.92 9.46Q222.18 9.72 222.18 10.16L222.18 10.16L222.18 10.16Q222.18 10.28 222.16 10.39L222.16 10.39L222.16 10.39Q222.14 10.51 222.11 10.60L222.11 10.60L222.11 10.60Q221.93 10.57 221.70 10.55L221.70 10.55L221.70 10.55Q221.48 10.53 221.17 10.53L221.17 10.53L221.17 10.53Q220.57 10.53 219.95 10.63L219.95 10.63L219.95 10.63Q219.34 10.74 218.78 10.81L218.78 10.81L218.78 10.81Q218.46 11.55 218.19 12.24L218.19 12.24L218.19 12.24Q217.92 12.94 217.73 13.51L217.73 13.51L217.73 13.51Q217.55 14.08 217.44 14.50L217.44 14.50L217.44 14.50Q217.34 14.92 217.32 15.13L217.32 15.13L217.32 15.13Q218.46 14.90 219.61 14.73L219.61 14.73L219.61 14.73Q220.77 14.56 222.04 14.48L222.04 14.48L222.04 14.48Q222.19 14.71 222.30 14.99L222.30 14.99L222.30 14.99Q222.40 15.27 222.40 15.60L222.40 15.60L222.40 15.60Q222.40 15.68 222.40 15.78L222.40 15.78L222.40 15.78Q222.40 15.88 222.38 15.97L222.38 15.97L222.38 15.97Q221.98 15.96 221.55 15.95L221.55 15.95L221.55 15.95Q221.12 15.95 220.42 15.95L220.42 15.95L220.42 15.95Q219.95 15.95 219.54 15.97L219.54 15.97L219.54 15.97Q219.13 15.99 218.71 16.03L218.71 16.03L218.71 16.03Q218.29 16.07 217.82 16.14L217.82 16.14L217.82 16.14Q217.35 16.21 216.76 16.31L216.76 16.31L216.76 16.31Q216.12 16.06 215.52 15.08L215.52 15.08L215.52 15.08Q215.75 14.57 216.18 13.54L216.18 13.54L216.18 13.54Q216.61 12.52 217.27 10.79L217.27 10.79L217.27 10.79Q216.64 10.60 216.44 10.09L216.44 10.09L216.44 10.09Q216.51 10.02 216.85 9.92L216.85 9.92L216.85 9.92Q217.18 9.81 217.67 9.70L217.67 9.70L217.67 9.70Q217.88 9.16 218.03 8.75L218.03 8.75L218.03 8.75Q218.18 8.34 218.29 7.99L218.29 7.99L218.29 7.99Q218.40 7.63 218.49 7.29L218.49 7.29L218.49 7.29Q218.58 6.94 218.67 6.54L218.67 6.54L218.67 6.54Q218.18 6.51 217.90 6.27L217.90 6.27L217.90 6.27Q217.62 6.02 217.62 5.63L217.62 5.63L217.62 5.63Q217.62 5.52 217.65 5.36L217.65 5.36L217.65 5.36Q217.69 5.21 217.73 5.10L217.73 5.10L217.73 5.10Q218.01 5.14 218.27 5.15L218.27 5.15L218.27 5.15Q218.53 5.17 218.95 5.17L218.95 5.17L218.95 5.17Q219.83 5.17 220.60 5.12L220.60 5.12L220.60 5.12Q221.37 5.07 221.99 5.01L221.99 5.01L221.99 5.01Q222.61 4.96 223.06 4.91L223.06 4.91L223.06 4.91Q223.51 4.86 223.75 4.86L223.75 4.86L223.75 4.86Q224.07 4.86 224.32 5.19L224.32 5.19L224.32 5.19Q224.57 5.53 224.70 6.15L224.70 6.15L224.70 6.15Q224.27 6.10 223.99 6.09L223.99 6.09L223.99 6.09Q223.72 6.08 223.51 6.08L223.51 6.08L223.51 6.08Q222.74 6.08 222.10 6.15L222.10 6.15L222.10 6.15Q221.47 6.23 220.88 6.31L220.88 6.31L220.88 6.31Q220.79 6.44 220.69 6.64L220.69 6.64L220.69 6.64Q220.58 6.83 220.42 7.18L220.42 7.18L220.42 7.18Q220.25 7.53 220.00 8.06L220.00 8.06L220.00 8.06Q219.76 8.60 219.41 9.39L219.41 9.39L219.41 9.39Q219.94 9.31 220.41 9.26L220.41 9.26L220.41 9.26Q220.88 9.21 221.20 9.21ZM236.73 16.21L236.73 16.21L236.73 16.21Q236.70 16.23 236.67 16.23L236.67 16.23L236.67 16.23Q236.64 16.23 236.56 16.23L236.56 16.23L236.56 16.23Q236.36 16.23 236.10 16.16L236.10 16.16L236.10 16.16Q235.84 16.10 235.60 16.01L235.60 16.01L235.60 16.01Q235.35 15.92 235.18 15.81L235.18 15.81L235.18 15.81Q235.00 15.69 234.96 15.61L234.96 15.61L234.96 15.61Q234.95 15.41 234.95 15.20L234.95 15.20L234.95 15.20Q234.95 14.99 234.95 14.80L234.95 14.80L234.95 14.80Q234.95 13.23 235.18 11.52L235.18 11.52L235.18 11.52Q235.41 9.81 235.94 7.83L235.94 7.83L235.94 7.83Q236.00 7.63 236.06 7.33L236.06 7.33L236.06 7.33Q236.12 7.03 236.19 6.68L236.19 6.68L236.19 6.68Q235.86 6.94 235.40 7.53L235.40 7.53L235.40 7.53Q234.93 8.11 234.42 8.90L234.42 8.90L234.42 8.90Q233.91 9.69 233.40 10.63L233.40 10.63L233.40 10.63Q232.89 11.58 232.47 12.55L232.47 12.55L232.47 12.55Q232.05 13.52 231.75 14.48L231.75 14.48L231.75 14.48Q231.45 15.43 231.38 16.24L231.38 16.24L231.38 16.24Q230.71 16.04 230.45 15.85L230.45 15.85L230.45 15.85Q230.19 15.65 230.19 15.37L230.19 15.37L230.19 15.37Q230.19 15.12 230.34 14.66L230.34 14.66L230.34 14.66Q230.50 14.20 230.78 13.57L230.78 13.57L230.78 13.57Q231.06 12.94 231.46 12.16L231.46 12.16L231.46 12.16Q231.87 11.38 232.36 10.49L232.36 10.49L232.36 10.49Q232.92 9.46 233.46 8.57L233.46 8.57L233.46 8.57Q234.00 7.67 234.51 6.94L234.51 6.94L234.51 6.94Q235.03 6.22 235.53 5.68L235.53 5.68L235.53 5.68Q236.03 5.15 236.52 4.87L236.52 4.87L236.52 4.87Q236.71 4.87 237.04 4.97L237.04 4.97L237.04 4.97Q237.37 5.07 237.69 5.21L237.69 5.21L237.69 5.21Q238 5.35 238.25 5.49L238.25 5.49L238.25 5.49Q238.49 5.64 238.52 5.74L238.52 5.74L238.52 5.74Q238.32 6.13 238.06 6.92L238.06 6.92L238.06 6.92Q237.79 7.70 237.52 8.69L237.52 8.69L237.52 8.69Q237.24 9.69 237.00 10.80L237.00 10.80L237.00 10.80Q236.75 11.91 236.61 12.94L236.61 12.94L236.61 12.94Q236.94 12.17 237.36 11.33L237.36 11.33L237.36 11.33Q237.79 10.50 238.27 9.68L238.27 9.68L238.27 9.68Q238.74 8.86 239.24 8.09L239.24 8.09L239.24 8.09Q239.74 7.32 240.21 6.69L240.21 6.69L240.21 6.69Q240.69 6.05 241.10 5.57L241.10 5.57L241.10 5.57Q241.51 5.10 241.84 4.87L241.84 4.87L241.84 4.87Q242.03 4.87 242.36 4.97L242.36 4.97L242.36 4.97Q242.69 5.07 243.00 5.21L243.00 5.21L243.00 5.21Q243.32 5.35 243.56 5.49L243.56 5.49L243.56 5.49Q243.81 5.64 243.84 5.74L243.84 5.74L243.84 5.74Q243.39 6.54 243.05 7.69L243.05 7.69L243.05 7.69Q242.72 8.83 242.49 10.09L242.49 10.09L242.49 10.09Q242.26 11.35 242.14 12.59L242.14 12.59L242.14 12.59Q242.02 13.83 242.02 14.81L242.02 14.81L242.02 14.81Q242.02 15.13 242.02 15.48L242.02 15.48L242.02 15.48Q242.02 15.83 242.05 16.21L242.05 16.21L242.05 16.21Q241.85 16.21 241.58 16.16L241.58 16.16L241.58 16.16Q241.30 16.11 241.05 16.03L241.05 16.03L241.05 16.03Q240.79 15.95 240.58 15.84L240.58 15.84L240.58 15.84Q240.37 15.74 240.28 15.61L240.28 15.61L240.28 15.61Q240.27 15.41 240.27 15.20L240.27 15.20L240.27 15.20Q240.27 14.99 240.27 14.80L240.27 14.80L240.27 14.80Q240.27 13.23 240.50 11.52L240.50 11.52L240.50 11.52Q240.73 9.81 241.26 7.83L241.26 7.83L241.26 7.83Q241.32 7.63 241.39 7.29L241.39 7.29L241.39 7.29Q241.46 6.96 241.53 6.59L241.53 6.59L241.53 6.59Q241.14 6.79 240.64 7.34L240.64 7.34L240.64 7.34Q240.14 7.90 239.63 8.69L239.63 8.69L239.63 8.69Q239.12 9.48 238.62 10.44L238.62 10.44L238.62 10.44Q238.13 11.41 237.73 12.41L237.73 12.41L237.73 12.41Q237.33 13.41 237.06 14.40L237.06 14.40L237.06 14.40Q236.78 15.39 236.73 16.21ZM251.47 14.38L251.47 14.38L251.47 14.38Q251.47 13.87 251.63 13.07L251.63 13.07L251.63 13.07Q251.79 12.26 252.05 11.33L252.05 11.33L252.05 11.33Q252.31 10.40 252.64 9.43L252.64 9.43L252.64 9.43Q252.98 8.46 253.33 7.60L253.33 7.60L253.33 7.60Q253.68 6.75 254.02 6.10L254.02 6.10L254.02 6.10Q254.35 5.46 254.62 5.18L254.62 5.18L254.62 5.18Q254.76 5.19 254.99 5.29L254.99 5.29L254.99 5.29Q255.22 5.38 255.46 5.50L255.46 5.50L255.46 5.50Q255.70 5.63 255.89 5.78L255.89 5.78L255.89 5.78Q256.09 5.92 256.14 6.05L256.14 6.05L256.14 6.05Q255.74 6.41 255.34 7.15L255.34 7.15L255.34 7.15Q254.94 7.88 254.57 8.82L254.57 8.82L254.57 8.82Q254.20 9.76 253.88 10.80L253.88 10.80L253.88 10.80Q253.55 11.84 253.32 12.82L253.32 12.82L253.32 12.82Q253.08 13.80 252.94 14.64L252.94 14.64L252.94 14.64Q252.81 15.48 252.81 16.00L252.81 16.00L252.81 16.00Q252.81 16.24 252.85 16.30L252.85 16.30L252.85 16.30Q252.55 16.28 252.41 16.19L252.41 16.19L252.41 16.19Q252.27 16.10 252.19 16.00L252.19 16.00L252.19 16.00Q252.11 15.89 252.05 15.79L252.05 15.79L252.05 15.79Q251.99 15.68 251.86 15.62L251.86 15.62L251.86 15.62Q251.76 15.58 251.69 15.43L251.69 15.43L251.69 15.43Q251.62 15.27 251.57 15.09L251.57 15.09L251.57 15.09Q251.52 14.90 251.50 14.70L251.50 14.70L251.50 14.70Q251.47 14.50 251.47 14.38ZM263.03 12.43L263.03 12.43L263.03 12.43Q263.03 11.45 263.26 10.51L263.26 10.51L263.26 10.51Q263.49 9.56 263.91 8.71L263.91 8.71L263.91 8.71Q264.33 7.87 264.91 7.16L264.91 7.16L264.91 7.16Q265.50 6.45 266.19 5.94L266.19 5.94L266.19 5.94Q266.88 5.42 267.67 5.13L267.67 5.13L267.67 5.13Q268.45 4.84 269.28 4.84L269.28 4.84L269.28 4.84Q270.24 4.84 270.78 5.25L270.78 5.25L270.78 5.25Q271.32 5.66 271.32 6.38L271.32 6.38L271.32 6.38Q271.32 6.66 271.24 6.96L271.24 6.96L271.24 6.96Q271.17 7.25 271.02 7.54L271.02 7.54L271.02 7.54Q270.87 7.83 270.68 8.09L270.68 8.09L270.68 8.09Q270.48 8.36 270.24 8.55L270.24 8.55L270.24 8.55Q269.88 8.50 269.61 8.22L269.61 8.22L269.61 8.22Q269.35 7.95 269.28 7.59L269.28 7.59L269.28 7.59Q269.77 7.18 270.05 6.74L270.05 6.74L270.05 6.74Q270.34 6.30 270.34 5.94L270.34 5.94L270.34 5.94Q270.34 5.32 269.57 5.32L269.57 5.32L269.57 5.32Q269.25 5.32 268.90 5.45L268.90 5.45L268.90 5.45Q268.56 5.59 268.21 5.82L268.21 5.82L268.21 5.82Q267.86 6.06 267.53 6.40L267.53 6.40L267.53 6.40Q267.20 6.73 266.92 7.14L266.92 7.14L266.92 7.14Q264.98 9.94 264.98 12.87L264.98 12.87L264.98 12.87Q264.98 13.90 265.30 14.53L265.30 14.53L265.30 14.53Q265.62 15.16 266.15 15.27L266.15 15.27L266.15 15.27Q266.76 15.13 267.68 14.50L267.68 14.50L267.68 14.50Q268.60 13.87 269.70 12.87L269.70 12.87L269.70 12.87Q269.84 13.01 269.86 13.16L269.86 13.16L269.86 13.16Q269.46 13.69 269.02 14.18L269.02 14.18L269.02 14.18Q268.59 14.67 268.16 15.08L268.16 15.08L268.16 15.08Q267.74 15.48 267.32 15.79L267.32 15.79L267.32 15.79Q266.91 16.10 266.56 16.27L266.56 16.27L266.56 16.27Q264.82 16.24 263.93 15.27L263.93 15.27L263.93 15.27Q263.03 14.31 263.03 12.43ZM290.04 15.61L290.04 15.61L290.04 15.61Q289.97 15.04 289.93 14.36L289.93 14.36L289.93 14.36Q289.90 13.68 289.90 13.09L289.90 13.09L289.90 13.09Q289.90 12.15 289.96 11.29L289.96 11.29L289.96 11.29Q290.02 10.43 290.12 9.48L290.12 9.48L290.12 9.48Q290.21 8.54 290.32 7.43L290.32 7.43L290.32 7.43Q290.43 6.31 290.51 4.86L290.51 4.86L290.51 4.86Q290.70 4.86 291.04 4.96L291.04 4.96L291.04 4.96Q291.38 5.07 291.73 5.21L291.73 5.21L291.73 5.21Q292.08 5.35 292.35 5.49L292.35 5.49L292.35 5.49Q292.61 5.64 292.66 5.74L292.66 5.74L292.66 5.74Q292.42 6.29 292.23 7.18L292.23 7.18L292.23 7.18Q292.04 8.06 291.91 9.11L291.91 9.11L291.91 9.11Q291.79 10.16 291.72 11.27L291.72 11.27L291.72 11.27Q291.65 12.38 291.65 13.34L291.65 13.34L291.65 13.34Q291.65 13.79 291.66 14.22L291.66 14.22L291.66 14.22Q291.68 14.66 291.70 15.02L291.70 15.02L291.70 15.02Q292.00 14.59 292.38 13.78L292.38 13.78L292.38 13.78Q292.77 12.98 293.18 11.98L293.18 11.98L293.18 11.98Q293.59 10.99 294.01 9.91L294.01 9.91L294.01 9.91Q294.42 8.82 294.77 7.83L294.77 7.83L294.77 7.83Q295.12 6.85 295.37 6.05L295.37 6.05L295.37 6.05Q295.61 5.26 295.71 4.86L295.71 4.86L295.71 4.86Q295.89 4.86 296.25 4.96L296.25 4.96L296.25 4.96Q296.60 5.07 296.95 5.21L296.95 5.21L296.95 5.21Q297.29 5.35 297.56 5.49L297.56 5.49L297.56 5.49Q297.82 5.64 297.85 5.74L297.85 5.74L297.85 5.74Q297.61 6.29 297.42 7.18L297.42 7.18L297.42 7.18Q297.23 8.06 297.11 9.11L297.11 9.11L297.11 9.11Q296.98 10.16 296.91 11.27L296.91 11.27L296.91 11.27Q296.84 12.38 296.84 13.34L296.84 13.34L296.84 13.34Q296.84 13.75 296.85 14.15L296.85 14.15L296.85 14.15Q296.86 14.55 296.88 14.87L296.88 14.87L296.88 14.87Q297.33 13.71 297.81 12.56L297.81 12.56L297.81 12.56Q298.30 11.42 298.77 10.38L298.77 10.38L298.77 10.38Q299.25 9.34 299.70 8.43L299.70 8.43L299.70 8.43Q300.15 7.53 300.52 6.82L300.52 6.82L300.52 6.82Q300.90 6.12 301.18 5.66L301.18 5.66L301.18 5.66Q301.46 5.19 301.62 5.04L301.62 5.04L301.62 5.04Q301.94 5.08 302.28 5.27L302.28 5.27L302.28 5.27Q302.62 5.46 302.89 5.75L302.89 5.75L302.89 5.75Q302.48 6.08 301.97 6.81L301.97 6.81L301.97 6.81Q301.45 7.55 300.90 8.51L300.90 8.51L300.90 8.51Q300.36 9.48 299.80 10.57L299.80 10.57L299.80 10.57Q299.25 11.66 298.77 12.70L298.77 12.70L298.77 12.70Q298.30 13.73 297.93 14.63L297.93 14.63L297.93 14.63Q297.56 15.53 297.36 16.07L297.36 16.07L297.36 16.07Q297.00 16.24 296.65 16.24L296.65 16.24L296.65 16.24Q296.20 16.18 295.80 16.02L295.80 16.02L295.80 16.02Q295.40 15.85 295.23 15.61L295.23 15.61L295.23 15.61Q295.19 15.39 295.16 15.09L295.16 15.09L295.16 15.09Q295.13 14.78 295.12 14.49L295.12 14.49L295.12 14.49Q295.11 14.20 295.10 13.92L295.10 13.92L295.10 13.92Q295.09 13.65 295.09 13.45L295.09 13.45L295.09 13.45Q295.09 12.21 295.19 10.91L295.19 10.91L295.19 10.91Q295.29 9.62 295.43 8.13L295.43 8.13L295.43 8.13Q295.11 9.09 294.71 10.18L294.71 10.18L294.71 10.18Q294.32 11.27 293.89 12.34L293.89 12.34L293.89 12.34Q293.47 13.41 293.03 14.38L293.03 14.38L293.03 14.38Q292.59 15.36 292.17 16.07L292.17 16.07L292.17 16.07Q291.80 16.24 291.45 16.24L291.45 16.24L291.45 16.24Q291.00 16.18 290.61 16.02L290.61 16.02L290.61 16.02Q290.21 15.85 290.04 15.61ZM315.04 4.98L315.04 4.98L315.04 4.98Q315.31 5.10 315.59 5.27L315.59 5.27L315.59 5.27Q315.87 5.45 316.11 5.63L316.11 5.63L316.11 5.63Q316.34 5.81 316.50 5.98L316.50 5.98L316.50 5.98Q316.67 6.16 316.68 6.27L316.68 6.27L316.68 6.27Q316.44 6.22 316.20 6.20L316.20 6.20L316.20 6.20Q315.97 6.17 315.77 6.17L315.77 6.17L315.77 6.17Q315.14 6.17 314.52 6.48L314.52 6.48L314.52 6.48Q313.89 6.79 313.33 7.32L313.33 7.32L313.33 7.32Q312.77 7.85 312.30 8.57L312.30 8.57L312.30 8.57Q311.82 9.28 311.48 10.09L311.48 10.09L311.48 10.09Q311.14 10.91 310.94 11.77L310.94 11.77L310.94 11.77Q310.74 12.64 310.74 13.48L310.74 13.48L310.74 13.48Q310.74 14.57 311.11 15.11L311.11 15.11L311.11 15.11Q311.47 15.64 312.17 15.64L312.17 15.64L312.17 15.64Q312.51 15.64 312.90 15.51L312.90 15.51L312.90 15.51Q313.29 15.37 313.70 15.13L313.70 15.13L313.70 15.13Q314.10 14.90 314.50 14.56L314.50 14.56L314.50 14.56Q314.89 14.22 315.22 13.82L315.22 13.82L315.22 13.82Q315.71 13.23 316.11 12.48L316.11 12.48L316.11 12.48Q316.50 11.73 316.77 10.89L316.77 10.89L316.77 10.89Q317.04 10.05 317.19 9.16L317.19 9.16L317.19 9.16Q317.34 8.27 317.34 7.42L317.34 7.42L317.34 7.42Q317.34 7.08 317.32 6.85L317.32 6.85L317.32 6.85Q317.31 6.62 317.29 6.46L317.29 6.46L317.29 6.46Q317.27 6.30 317.25 6.20L317.25 6.20L317.25 6.20Q317.24 6.10 317.23 6.03L317.23 6.03L317.23 6.03Q317.39 6.12 317.60 6.24L317.60 6.24L317.60 6.24Q317.80 6.36 317.97 6.59L317.97 6.59L317.97 6.59Q318.15 6.82 318.27 7.20L318.27 7.20L318.27 7.20Q318.39 7.57 318.39 8.18L318.39 8.18L318.39 8.18Q318.39 9.16 318.16 10.10L318.16 10.10L318.16 10.10Q317.93 11.05 317.51 11.90L317.51 11.90L317.51 11.90Q317.10 12.75 316.54 13.50L316.54 13.50L316.54 13.50Q315.98 14.24 315.34 14.80L315.34 14.80L315.34 14.80Q314.50 15.54 313.54 15.95L313.54 15.95L313.54 15.95Q312.59 16.35 311.71 16.35L311.71 16.35L311.71 16.35Q310.42 16.35 309.74 15.53L309.74 15.53L309.74 15.53Q309.06 14.71 309.06 13.12L309.06 13.12L309.06 13.12Q309.06 12.26 309.25 11.31L309.25 11.31L309.25 11.31Q309.44 10.36 309.78 9.44L309.78 9.44L309.78 9.44Q310.13 8.51 310.60 7.68L310.60 7.68L310.60 7.68Q311.08 6.85 311.65 6.21L311.65 6.21L311.65 6.21Q312.21 5.57 312.86 5.19L312.86 5.19L312.86 5.19Q313.52 4.82 314.20 4.82L314.20 4.82L314.20 4.82Q314.43 4.82 314.62 4.85L314.62 4.85L314.62 4.85Q314.82 4.89 315.04 4.98ZM335.23 7.46L335.23 7.46L335.23 7.46Q335.23 8.13 334.93 8.73L334.93 8.73L334.93 8.73Q334.63 9.32 334.10 9.79L334.10 9.79L334.10 9.79Q333.56 10.26 332.85 10.58L332.85 10.58L332.85 10.58Q332.14 10.91 331.30 11.02L331.30 11.02L331.30 11.02Q331.51 11.65 331.81 12.31L331.81 12.31L331.81 12.31Q332.11 12.98 332.46 13.59L332.46 13.59L332.46 13.59Q332.81 14.21 333.19 14.73L333.19 14.73L333.19 14.73Q333.56 15.25 333.93 15.58L333.93 15.58L333.93 15.58Q333.86 15.72 333.72 15.86L333.72 15.86L333.72 15.86Q333.59 16.00 333.42 16.12L333.42 16.12L333.42 16.12Q333.24 16.24 333.05 16.32L333.05 16.32L333.05 16.32Q332.86 16.39 332.70 16.39L332.70 16.39L332.70 16.39Q332.39 16.39 332.11 16.10L332.11 16.10L332.11 16.10Q331.83 15.81 331.54 15.17L331.54 15.17L331.54 15.17Q331.25 14.53 330.94 13.52L330.94 13.52L330.94 13.52Q330.62 12.50 330.25 11.07L330.25 11.07L330.25 11.07Q330.09 11.07 329.94 11.07L329.94 11.07L329.94 11.07Q329.78 11.07 329.70 11.05L329.70 11.05L329.70 11.05Q329.60 10.99 329.49 10.85L329.49 10.85L329.49 10.85Q329.11 11.66 328.82 12.38L328.82 12.38L328.82 12.38Q328.52 13.09 328.29 13.76L328.29 13.76L328.29 13.76Q328.06 14.42 327.89 15.04L327.89 15.04L327.89 15.04Q327.71 15.67 327.59 16.31L327.59 16.31L327.59 16.31Q327.11 16.20 326.76 15.90L326.76 15.90L326.76 15.90Q326.41 15.61 326.10 15.08L326.10 15.08L326.10 15.08Q326.16 14.95 326.22 14.83L326.22 14.83L326.22 14.83Q326.28 14.71 326.38 14.50L326.38 14.50L326.38 14.50Q326.48 14.28 326.63 13.94L326.63 13.94L326.63 13.94Q326.77 13.61 327.02 13.05L327.02 13.05L327.02 13.05Q327.26 12.49 327.61 11.68L327.61 11.68L327.61 11.68Q327.95 10.86 328.44 9.70L328.44 9.70L328.44 9.70Q328.66 9.18 328.82 8.79L328.82 8.79L328.82 8.79Q328.99 8.40 329.11 8.04L329.11 8.04L329.11 8.04Q329.24 7.69 329.34 7.33L329.34 7.33L329.34 7.33Q329.45 6.97 329.56 6.51L329.56 6.51L329.56 6.51Q328.92 6.73 328.36 7.01L328.36 7.01L328.36 7.01Q327.81 7.28 327.45 7.59L327.45 7.59L327.45 7.59Q327.32 7.50 327.19 7.34L327.19 7.34L327.19 7.34Q327.05 7.17 326.94 6.96L326.94 6.96L326.94 6.96Q326.83 6.76 326.75 6.55L326.75 6.55L326.75 6.55Q326.66 6.34 326.65 6.17L326.65 6.17L326.65 6.17Q327.07 5.89 327.68 5.66L327.68 5.66L327.68 5.66Q328.29 5.42 328.97 5.24L328.97 5.24L328.97 5.24Q329.66 5.07 330.37 4.97L330.37 4.97L330.37 4.97Q331.09 4.87 331.70 4.87L331.70 4.87L331.70 4.87Q333.38 4.87 334.31 5.56L334.31 5.56L334.31 5.56Q335.23 6.26 335.23 7.46ZM331.65 6.02L331.81 6.29L331.81 6.29Q331.72 6.41 331.51 6.79L331.51 6.79L331.51 6.79Q331.30 7.17 331.02 7.69L331.02 7.69L331.02 7.69Q330.75 8.22 330.45 8.83L330.45 8.83L330.45 8.83Q330.15 9.45 329.87 10.05L329.87 10.05L329.87 10.05Q330.92 10.05 331.80 9.86L331.80 9.86L331.80 9.86Q332.68 9.66 333.33 9.30L333.33 9.30L333.33 9.30Q333.97 8.95 334.33 8.46L334.33 8.46L334.33 8.46Q334.68 7.98 334.68 7.39L334.68 7.39L334.68 7.39Q334.68 6.69 334.18 6.32L334.18 6.32L334.18 6.32Q333.68 5.95 332.63 5.95L332.63 5.95L332.63 5.95Q332.39 5.95 332.15 5.97L332.15 5.97L332.15 5.97Q331.91 5.99 331.65 6.02L331.65 6.02ZM345.65 10.74L345.65 10.74L345.65 10.74Q346.51 9.45 347.36 8.37L347.36 8.37L347.36 8.37Q348.21 7.28 348.98 6.50L348.98 6.50L348.98 6.50Q349.75 5.71 350.39 5.28L350.39 5.28L350.39 5.28Q351.04 4.84 351.51 4.84L351.51 4.84L351.51 4.84Q351.69 4.84 351.91 4.98L351.91 4.98L351.91 4.98Q352.13 5.12 352.32 5.35L352.32 5.35L352.32 5.35Q352.51 5.57 352.63 5.83L352.63 5.83L352.63 5.83Q352.76 6.09 352.76 6.33L352.76 6.33L352.76 6.33Q351.89 6.61 351.06 7.06L351.06 7.06L351.06 7.06Q350.22 7.52 349.46 8.11L349.46 8.11L349.46 8.11Q348.70 8.71 348.00 9.44L348.00 9.44L348.00 9.44Q347.31 10.16 346.75 10.99L346.75 10.99L346.75 10.99Q346.98 11.56 347.30 12.21L347.30 12.21L347.30 12.21Q347.63 12.87 348.03 13.47L348.03 13.47L348.03 13.47Q348.42 14.08 348.87 14.60L348.87 14.60L348.87 14.60Q349.31 15.12 349.78 15.43L349.78 15.43L349.78 15.43Q349.71 15.58 349.54 15.72L349.54 15.72L349.54 15.72Q349.37 15.86 349.17 15.98L349.17 15.98L349.17 15.98Q348.98 16.10 348.76 16.17L348.76 16.17L348.76 16.17Q348.54 16.24 348.36 16.24L348.36 16.24L348.36 16.24Q348.00 16.24 347.69 15.90L347.69 15.90L347.69 15.90Q347.38 15.55 347.07 14.86L347.07 14.86L347.07 14.86Q346.75 14.17 346.41 13.14L346.41 13.14L346.41 13.14Q346.07 12.11 345.65 10.74ZM343.53 16.31L343.53 16.31L343.53 16.31Q343.00 16.18 342.65 15.87L342.65 15.87L342.65 15.87Q342.30 15.55 342.01 15.08L342.01 15.08L342.01 15.08Q342.13 14.81 342.31 14.38L342.31 14.38L342.31 14.38Q342.48 13.94 342.73 13.31L342.73 13.31L342.73 13.31Q342.99 12.67 343.34 11.78L343.34 11.78L343.34 11.78Q343.69 10.89 344.15 9.70L344.15 9.70L344.15 9.70Q344.44 8.95 344.63 8.43L344.63 8.43L344.63 8.43Q344.82 7.91 344.95 7.41L344.95 7.41L344.95 7.41Q345.09 6.92 345.21 6.31L345.21 6.31L345.21 6.31Q345.34 5.71 345.51 4.79L345.51 4.79L345.51 4.79Q346.09 4.90 346.58 5.31L346.58 5.31L346.58 5.31Q347.06 5.71 347.41 6.29L347.41 6.29L347.41 6.29Q347.26 6.48 347.05 6.88L347.05 6.88L347.05 6.88Q346.85 7.28 346.60 7.84L346.60 7.84L346.60 7.84Q346.35 8.40 346.04 9.09L346.04 9.09L346.04 9.09Q345.73 9.77 345.39 10.54L345.39 10.54L345.39 10.54Q344.64 12.22 344.20 13.62L344.20 13.62L344.20 13.62Q343.77 15.01 343.53 16.31ZM364.71 4.98L364.71 4.98L364.71 4.98Q364.98 5.10 365.26 5.27L365.26 5.27L365.26 5.27Q365.54 5.45 365.78 5.63L365.78 5.63L365.78 5.63Q366.02 5.81 366.18 5.98L366.18 5.98L366.18 5.98Q366.34 6.16 366.35 6.27L366.35 6.27L366.35 6.27Q366.11 6.22 365.88 6.20L365.88 6.20L365.88 6.20Q365.64 6.17 365.44 6.17L365.44 6.17L365.44 6.17Q364.81 6.17 364.19 6.48L364.19 6.48L364.19 6.48Q363.57 6.79 363.01 7.32L363.01 7.32L363.01 7.32Q362.45 7.85 361.97 8.57L361.97 8.57L361.97 8.57Q361.49 9.28 361.15 10.09L361.15 10.09L361.15 10.09Q360.81 10.91 360.61 11.77L360.61 11.77L360.61 11.77Q360.42 12.64 360.42 13.48L360.42 13.48L360.42 13.48Q360.42 14.57 360.78 15.11L360.78 15.11L360.78 15.11Q361.14 15.64 361.84 15.64L361.84 15.64L361.84 15.64Q362.18 15.64 362.57 15.51L362.57 15.51L362.57 15.51Q362.96 15.37 363.37 15.13L363.37 15.13L363.37 15.13Q363.78 14.90 364.17 14.56L364.17 14.56L364.17 14.56Q364.56 14.22 364.90 13.82L364.90 13.82L364.90 13.82Q365.39 13.23 365.78 12.48L365.78 12.48L365.78 12.48Q366.17 11.73 366.44 10.89L366.44 10.89L366.44 10.89Q366.72 10.05 366.86 9.16L366.86 9.16L366.86 9.16Q367.01 8.27 367.01 7.42L367.01 7.42L367.01 7.42Q367.01 7.08 367.00 6.85L367.00 6.85L367.00 6.85Q366.98 6.62 366.96 6.46L366.96 6.46L366.96 6.46Q366.94 6.30 366.93 6.20L366.93 6.20L366.93 6.20Q366.91 6.10 366.90 6.03L366.90 6.03L366.90 6.03Q367.07 6.12 367.27 6.24L367.27 6.24L367.27 6.24Q367.47 6.36 367.65 6.59L367.65 6.59L367.65 6.59Q367.82 6.82 367.94 7.20L367.94 7.20L367.94 7.20Q368.06 7.57 368.06 8.18L368.06 8.18L368.06 8.18Q368.06 9.16 367.83 10.10L367.83 10.10L367.83 10.10Q367.60 11.05 367.18 11.90L367.18 11.90L367.18 11.90Q366.77 12.75 366.21 13.50L366.21 13.50L366.21 13.50Q365.65 14.24 365.01 14.80L365.01 14.80L365.01 14.80Q364.17 15.54 363.22 15.95L363.22 15.95L363.22 15.95Q362.26 16.35 361.38 16.35L361.38 16.35L361.38 16.35Q360.09 16.35 359.41 15.53L359.41 15.53L359.41 15.53Q358.74 14.71 358.74 13.12L358.74 13.12L358.74 13.12Q358.74 12.26 358.92 11.31L358.92 11.31L358.92 11.31Q359.11 10.36 359.46 9.44L359.46 9.44L359.46 9.44Q359.80 8.51 360.28 7.68L360.28 7.68L360.28 7.68Q360.75 6.85 361.32 6.21L361.32 6.21L361.32 6.21Q361.89 5.57 362.54 5.19L362.54 5.19L362.54 5.19Q363.19 4.82 363.87 4.82L363.87 4.82L363.87 4.82Q364.10 4.82 364.29 4.85L364.29 4.85L364.29 4.85Q364.49 4.89 364.71 4.98ZM380.76 5.75L380.76 5.75L380.76 5.75Q380.14 6.58 379.64 7.57L379.64 7.57L379.64 7.57Q379.13 8.57 378.78 9.61L378.78 9.61L378.78 9.61Q378.42 10.65 378.23 11.67L378.23 11.67L378.23 11.67Q378.04 12.68 378.04 13.57L378.04 13.57L378.04 13.57Q378.04 14.66 378.36 15.15L378.36 15.15L378.36 15.15Q378.69 15.64 379.47 15.64L379.47 15.64L379.47 15.64Q380.38 15.64 381.07 15.00L381.07 15.00L381.07 15.00Q381.75 14.36 382.35 13.24L382.35 13.24L382.35 13.24Q382.75 12.52 383.03 11.65L383.03 11.65L383.03 11.65Q383.31 10.78 383.48 9.86L383.48 9.86L383.48 9.86Q383.66 8.95 383.74 8.02L383.74 8.02L383.74 8.02Q383.82 7.08 383.82 6.23L383.82 6.23L383.82 6.23Q383.82 5.68 383.81 5.43L383.81 5.43L383.81 5.43Q383.80 5.18 383.77 5.03L383.77 5.03L383.77 5.03Q383.81 5.03 383.98 5.05L383.98 5.05L383.98 5.05Q384.15 5.08 384.36 5.12L384.36 5.12L384.36 5.12Q384.58 5.17 384.80 5.24L384.80 5.24L384.80 5.24Q385.01 5.31 385.17 5.39L385.17 5.39L385.17 5.39Q385.10 6.45 384.91 7.59L384.91 7.59L384.91 7.59Q384.72 8.72 384.41 9.83L384.41 9.83L384.41 9.83Q384.10 10.93 383.70 11.96L383.70 11.96L383.70 11.96Q383.29 12.98 382.79 13.79L382.79 13.79L382.79 13.79Q382.05 14.99 381.12 15.67L381.12 15.67L381.12 15.67Q380.20 16.35 378.94 16.35L378.94 16.35L378.94 16.35Q377.65 16.35 376.94 15.60L376.94 15.60L376.94 15.60Q376.22 14.85 376.22 13.33L376.22 13.33L376.22 13.33Q376.22 12.45 376.42 11.33L376.42 11.33L376.42 11.33Q376.61 10.22 376.94 9.07L376.94 9.07L376.94 9.07Q377.27 7.91 377.71 6.81L377.71 6.81L377.71 6.81Q378.14 5.71 378.62 4.84L378.62 4.84L378.62 4.84Q378.85 4.86 379.18 4.94L379.18 4.94L379.18 4.94Q379.50 5.03 379.81 5.16L379.81 5.16L379.81 5.16Q380.11 5.29 380.37 5.45L380.37 5.45L380.37 5.45Q380.63 5.61 380.76 5.75ZM394.80 6.69L394.80 6.69L394.80 6.69Q394.24 6.69 393.94 6.38L393.94 6.38L393.94 6.38Q393.64 6.06 393.64 5.61L393.64 5.61L393.64 5.61Q393.64 5.50 393.67 5.35L393.67 5.35L393.67 5.35Q393.71 5.19 393.76 5.08L393.76 5.08L393.76 5.08Q393.95 5.17 394.30 5.20L394.30 5.20L394.30 5.20Q394.66 5.24 395.14 5.24L395.14 5.24L395.14 5.24Q395.85 5.24 396.75 5.17L396.75 5.17L396.75 5.17Q397.66 5.11 398.48 5.04L398.48 5.04L398.48 5.04Q399.31 4.97 399.94 4.91L399.94 4.91L399.94 4.91Q400.57 4.84 400.75 4.84L400.75 4.84L400.75 4.84Q401.27 4.84 401.50 5.23L401.50 5.23L401.50 5.23Q401.73 5.61 401.84 6.26L401.84 6.26L401.84 6.26Q401.48 6.23 401.12 6.21L401.12 6.21L401.12 6.21Q400.76 6.19 400.51 6.19L400.51 6.19L400.51 6.19Q400.06 6.19 399.61 6.22L399.61 6.22L399.61 6.22Q399.15 6.24 398.69 6.30L398.69 6.30L398.69 6.30Q398.50 6.71 398.26 7.26L398.26 7.26L398.26 7.26Q398.02 7.81 397.79 8.41L397.79 8.41L397.79 8.41Q397.56 9.02 397.35 9.61L397.35 9.61L397.35 9.61Q397.14 10.21 396.98 10.68L396.98 10.68L396.98 10.68Q396.68 11.61 396.44 12.39L396.44 12.39L396.44 12.39Q396.21 13.17 396.04 13.85L396.04 13.85L396.04 13.85Q395.86 14.53 395.74 15.15L395.74 15.15L395.74 15.15Q395.61 15.76 395.51 16.35L395.51 16.35L395.51 16.35Q394.58 16.21 393.95 15.18L393.95 15.18L393.95 15.18Q394.06 14.74 394.22 14.23L394.22 14.23L394.22 14.23Q394.38 13.72 394.60 13.07L394.60 13.07L394.60 13.07Q394.81 12.42 395.11 11.59L395.11 11.59L395.11 11.59Q395.40 10.77 395.78 9.72L395.78 9.72L395.78 9.72Q395.92 9.32 396.07 8.90L396.07 8.90L396.07 8.90Q396.23 8.47 396.37 8.05L396.37 8.05L396.37 8.05Q396.52 7.63 396.64 7.24L396.64 7.24L396.64 7.24Q396.76 6.85 396.84 6.52L396.84 6.52L396.84 6.52Q396.26 6.59 395.73 6.64L395.73 6.64L395.73 6.64Q395.21 6.69 394.80 6.69ZM407.85 12.54L407.85 12.54L407.85 12.54Q407.85 12.17 408.05 11.45L408.05 11.45L408.05 11.45Q408.25 10.72 408.58 9.85L408.58 9.85L408.58 9.85Q408.90 8.97 409.30 8.04L409.30 8.04L409.30 8.04Q409.71 7.11 410.12 6.30L410.12 6.30L410.12 6.30Q410.54 5.49 410.91 4.89L410.91 4.89L410.91 4.89Q411.29 4.30 411.57 4.10L411.57 4.10L411.57 4.10Q411.80 4.14 412.05 4.30L412.05 4.30L412.05 4.30Q412.31 4.47 412.54 4.67L412.54 4.67L412.54 4.67Q412.76 4.87 412.93 5.10L412.93 5.10L412.93 5.10Q413.10 5.32 413.13 5.49L413.13 5.49L413.13 5.49Q412.41 6.08 411.71 6.95L411.71 6.95L411.71 6.95Q411.01 7.83 410.42 8.89L410.42 8.89L410.42 8.89Q409.82 9.95 409.37 11.16L409.37 11.16L409.37 11.16Q408.93 12.38 408.70 13.64L408.70 13.64L408.70 13.64Q408.53 13.59 408.37 13.53L408.37 13.53L408.37 13.53Q408.21 13.47 408.10 13.36L408.10 13.36L408.10 13.36Q407.99 13.24 407.92 13.05L407.92 13.05L407.92 13.05Q407.85 12.85 407.85 12.54ZM407.54 16.25L407.54 16.25L407.54 16.25Q407.37 16.25 407.22 16.18L407.22 16.18L407.22 16.18Q407.06 16.10 406.94 16.00L406.94 16.00L406.94 16.00Q406.83 15.89 406.76 15.77L406.76 15.77L406.76 15.77Q406.69 15.65 406.69 15.58L406.69 15.58L406.69 15.58Q406.69 15.41 406.73 15.15L406.73 15.15L406.73 15.15Q406.77 14.88 406.85 14.64L406.85 14.64L406.85 14.64Q406.94 14.39 407.06 14.22L407.06 14.22L407.06 14.22Q407.19 14.04 407.34 14.04L407.34 14.04L407.34 14.04Q407.74 14.04 408.13 14.31L408.13 14.31L408.13 14.31Q408.53 14.59 408.73 14.92L408.73 14.92L408.73 14.92Q408.56 15.11 408.44 15.34L408.44 15.34L408.44 15.34Q408.31 15.57 408.18 15.77L408.18 15.77L408.18 15.77Q408.06 15.97 407.90 16.11L407.90 16.11L407.90 16.11Q407.75 16.25 407.54 16.25Z"></path></g></svg>