<svg data-v-423bf9ae="" xmlns="http://www.w3.org/2000/svg" viewBox="0 0 257.44413993543543 60" class="font"><!----><!----><!----><g data-v-423bf9ae="" id="2a59e509-e187-4e47-bb4c-79ce09551a4c" fill="white" transform="matrix(5.382482764214037,0,0,5.382482764214037,-1.1841428826566016,-8.827272536374515)"><path d="M4.23 2.18L4.23 2.18L4.23 2.18Q4.23 2.56 3.72 2.66L3.72 2.66L3.72 2.66Q3.07 2.79 2.91 2.95L2.91 2.95L2.91 2.95Q1.34 4.61 1.34 7.22L1.34 7.22L1.34 7.22Q1.34 8.46 1.74 9.55L1.74 9.55L1.74 9.55Q2.06 10.44 2.20 10.72L2.20 10.72L2.20 10.72Q2.55 11.41 3.05 11.70L3.05 11.70L3.05 11.70Q3.26 11.80 3.47 11.89L3.47 11.89L3.47 11.89Q3.70 12.01 3.70 12.24L3.70 12.24L3.70 12.24Q3.70 12.46 3.55 12.64L3.55 12.64L3.55 12.64Q3.40 12.82 3.23 12.78L3.23 12.78L3.23 12.78Q3.05 12.75 2.67 12.60L2.67 12.60L2.67 12.60Q2.00 12.21 1.22 10.93L1.22 10.93L1.22 10.93Q1.02 10.61 0.82 10.27L0.82 10.27L0.82 10.27Q0.62 9.93 0.52 9.62L0.52 9.62L0.52 9.62Q0.45 9.39 0.28 7.81L0.28 7.81L0.28 7.81Q0.22 7.32 0.22 6.86L0.22 6.86L0.22 6.86Q0.22 4.38 1.67 2.65L1.67 2.65L1.67 2.65Q2.51 1.64 3.42 1.64L3.42 1.64L3.42 1.64Q3.81 1.64 4.13 1.88L4.13 1.88L4.13 1.88Q4.23 1.95 4.23 2.18ZM9.06 9.95L9.06 9.95L9.06 9.95Q9.14 10.18 9.14 10.35L9.14 10.35L9.14 10.35Q9.14 10.63 8.90 10.84L8.90 10.84L8.90 10.84Q8.67 11.05 8.58 11.03L8.58 11.03L8.58 11.03Q7.90 10.91 7.71 9.93L7.71 9.93L7.71 9.93Q7.52 8.86 7.25 8.15L7.25 8.15L7.25 8.15Q6.78 8.19 6.30 8.23L6.30 8.23L6.30 8.23Q5.75 8.30 5.45 8.57L5.45 8.57L5.45 8.57Q5.29 9.00 5.04 10.11L5.04 10.11L5.04 10.11Q4.80 11.13 4.58 11.66L4.58 11.66L4.58 11.66Q4.47 11.91 4.10 11.80L4.10 11.80L4.10 11.80Q3.64 11.65 3.61 11.38L3.61 11.38L3.61 11.38Q3.57 10.85 3.92 9.95L3.92 9.95L3.92 9.95Q4.34 8.93 4.38 8.50L4.38 8.50L4.38 8.50Q4.40 8.37 4.20 8.22L4.20 8.22L4.20 8.22Q4.00 8.06 4.00 7.98L4.00 7.98L4.00 7.98Q4.00 7.91 4.07 7.83L4.07 7.83L4.07 7.83Q4.13 7.76 4.36 7.71L4.36 7.71L4.36 7.71Q4.59 7.66 4.62 7.56L4.62 7.56L4.62 7.56Q4.87 6.86 5.42 4.96L5.42 4.96L5.42 4.96Q5.88 3.30 6.24 2.42L6.24 2.42L6.24 2.42Q6.33 2.23 6.59 2.23L6.59 2.23L6.59 2.23Q6.79 2.23 6.94 2.35L6.94 2.35L6.94 2.35Q7.34 2.69 7.45 3.36L7.45 3.36L7.45 3.36Q7.53 3.93 7.60 4.51L7.60 4.51L7.60 4.51Q8.30 7.81 9.06 9.95ZM7.01 7.28L7.01 7.28L7.01 7.28Q6.97 6.76 6.83 6.12L6.83 6.12L6.83 6.12Q6.69 5.56 6.57 5.00L6.57 5.00L6.57 5.00Q6.15 6.16 5.84 7.32L5.84 7.32L5.84 7.32Q6.06 7.28 7.01 7.28ZM15.27 10.72L15.27 10.72L15.27 10.72Q15.32 10.78 15.32 10.85L15.32 10.85L15.32 10.85Q15.32 11.17 14.64 11.34L14.64 11.34L14.64 11.34Q13.90 10.77 12.80 9.58L12.80 9.58L12.80 9.58Q11.56 8.25 10.96 7.73L10.96 7.73L10.96 7.73Q10.92 8.09 10.81 9.63L10.81 9.63L10.81 9.63Q10.74 10.79 10.56 11.48L10.56 11.48L10.56 11.48Q10.53 11.48 10.38 11.55L10.38 11.55L10.38 11.55Q10.23 11.62 10.14 11.59L10.14 11.59L10.14 11.59Q9.52 11.45 9.52 10.74L9.52 10.74L9.52 10.74Q9.52 10.53 9.58 10.18L9.58 10.18L9.58 10.18Q9.63 9.77 9.65 9.67L9.65 9.67L9.65 9.67Q9.70 8.86 9.72 7.74L9.72 7.74L9.72 6.22L9.72 6.22Q9.72 4.31 9.93 3.01L9.93 3.01L9.93 3.01Q10.07 2.14 11.56 2.21L11.56 2.21L11.56 2.21Q12.32 2.24 12.88 2.97L12.88 2.97L12.88 2.97Q13.40 3.64 13.40 4.42L13.40 4.42L13.40 4.42Q13.40 5.08 12.91 5.74L12.91 5.74L12.91 5.74Q12.49 6.33 11.87 6.66L11.87 6.66L11.87 6.66Q11.62 6.80 11.62 6.97L11.62 6.97L11.62 6.97Q11.62 7.15 11.91 7.41L11.91 7.41L11.91 7.41Q12.14 7.59 12.36 7.77L12.36 7.77L12.36 7.77Q12.38 7.78 13.90 9.17L13.90 9.17L13.90 9.17Q14.87 10.04 15.27 10.72ZM12.32 4.44L12.32 4.44L12.32 4.44Q12.36 4.19 12.35 3.99L12.35 3.99L12.35 3.99Q12.31 3.70 12.10 3.46L12.10 3.46L12.10 3.46Q11.90 3.22 11.45 3.22L11.45 3.22L11.45 3.22Q11.12 3.22 11.03 3.43L11.03 3.43L11.03 3.43Q10.96 3.78 10.96 4.23L10.96 4.23L10.96 4.23Q10.96 4.41 11.00 5.17L11.00 5.17L11.00 5.17Q11.03 5.74 11.00 6.10L11.00 6.10L11.00 6.10Q12.17 5.24 12.32 4.44ZM18.61 7.53L18.61 7.53L18.61 7.53Q18.47 7.85 18.34 8.18L18.34 8.18L18.34 8.18Q18.17 8.55 17.98 8.78L17.98 8.78L17.98 8.78Q17.54 9.32 17.11 9.86L17.11 9.86L17.11 9.86Q16.59 10.50 16.17 10.75L16.17 10.75L16.17 10.75Q16.03 10.92 15.86 11.10L15.86 11.10L15.86 11.10Q15.69 11.28 15.53 11.28L15.53 11.28L15.53 11.28Q15.44 11.28 15.33 11.24L15.33 11.24L15.33 11.24Q15.22 11.20 15.09 11.14L15.09 11.14L15.09 11.14Q14.95 11.09 14.90 10.96L14.90 10.96L14.90 10.96Q14.85 10.37 14.85 9.70L14.85 9.70L14.85 9.70Q14.85 9.02 14.91 7.66L14.91 7.66L14.91 7.66Q14.97 6.30 14.97 5.61L14.97 5.61L14.97 5.61Q14.97 4.70 14.90 3.95L14.90 3.95L14.90 3.95Q14.88 3.93 14.59 3.63L14.59 3.63L14.59 3.63Q14.41 3.44 14.41 3.29L14.41 3.29L14.41 3.29Q14.41 3.22 14.43 3.15L14.43 3.15L14.43 3.15Q14.50 2.98 14.74 2.95L14.74 2.95L14.74 2.95Q14.92 2.93 15.11 2.91L15.11 2.91L15.11 2.91Q16.28 3.16 17.57 4.23L17.57 4.23L17.57 4.23Q17.91 4.51 18.12 4.82L18.12 4.82L18.12 4.82Q18.79 5.81 18.79 6.68L18.79 6.68L18.79 6.68Q18.79 7.13 18.61 7.53ZM17.60 6.03L17.60 6.03L17.60 6.03Q17.47 5.15 16.10 4.48L16.10 4.48L16.10 4.48Q16.00 6.82 16.04 9.44L16.04 9.44L16.04 9.44Q17.63 7.85 17.63 6.43L17.63 6.43L17.63 6.43Q17.63 6.23 17.60 6.03ZM21.04 3.54L21.04 3.54L21.04 3.54Q21.07 3.95 21.07 4.38L21.07 4.38L21.07 4.38Q21.07 5.33 20.87 7.25L20.87 7.25L20.87 7.25Q20.68 9.17 20.68 10.15L20.68 10.15L20.68 10.15Q20.68 10.51 20.69 10.86L20.69 10.86L20.69 10.86Q20.57 11.26 20.15 11.24L20.15 11.24L20.15 11.24Q19.54 11.21 19.49 10.72L19.49 10.72L19.49 10.72Q19.43 10.23 19.43 9.69L19.43 9.69L19.43 9.69Q19.43 8.74 19.66 6.85L19.66 6.85L19.66 6.85Q19.89 4.96 19.89 4.02L19.89 4.02L19.89 4.02Q19.89 3.65 19.87 3.30L19.87 3.30L19.87 3.30Q20.01 3.04 20.34 3.04L20.34 3.04L20.34 3.04Q20.61 3.04 20.87 3.19L20.87 3.19L20.87 3.19Q20.93 3.15 20.96 3.15L20.96 3.15L20.96 3.15Q21.00 3.15 21.00 3.29L21.00 3.29L21.00 3.29Q20.99 3.46 21.00 3.49L21.00 3.49L21.00 3.49Q21.01 3.53 21.04 3.54ZM26.59 7.60L26.59 7.60L26.59 7.60Q25.76 9.46 24.25 9.81L24.25 9.81L24.25 9.81Q24.07 9.86 23.88 9.86L23.88 9.86L23.88 9.86Q23.09 9.86 22.27 8.99L22.27 8.99L22.27 8.99Q21.73 8.40 21.73 7.46L21.73 7.46L21.73 7.46Q21.73 6.43 22.34 5.24L22.34 5.24L22.34 5.24Q22.61 4.73 22.99 4.37L22.99 4.37L22.99 4.37Q23.42 3.93 23.81 3.93L23.81 3.93L23.81 3.93Q24.04 3.93 24.23 4.10L24.23 4.10L24.23 4.10Q24.43 4.27 25.28 4.55L25.28 4.55L25.28 4.55Q25.96 4.77 26.24 5.31L26.24 5.31L26.24 5.31Q26.73 6.24 26.73 6.92L26.73 6.92L26.73 6.92Q26.73 7.29 26.59 7.60ZM25.47 6.73L25.47 6.73L25.47 6.73Q25.37 5.71 24.92 5.52L24.92 5.52L24.92 5.52Q24.85 5.49 24.79 5.49L24.79 5.49L24.79 5.49Q24.63 5.49 24.37 5.77L24.37 5.77L24.37 5.77Q24.09 6.09 23.94 6.15L23.94 6.15L23.94 6.15Q23.84 6.19 23.66 6.06L23.66 6.06L23.66 6.06Q23.48 5.94 23.42 5.94L23.42 5.94L23.42 5.94Q23.38 5.94 23.35 5.96L23.35 5.96L23.35 5.96Q22.86 6.38 22.86 7.27L22.86 7.27L22.86 7.27Q22.86 7.87 23.14 8.29L23.14 8.29L23.14 8.29Q23.53 8.86 23.80 8.86L23.80 8.86L23.80 8.86Q24.42 8.86 24.99 8.09L24.99 8.09L24.99 8.09Q25.54 7.36 25.47 6.73ZM37.59 10.86L37.59 10.86L37.59 10.86Q37.65 11.14 37.18 11.17L37.18 11.17L37.18 11.17Q36.88 11.19 36.55 10.91L36.55 10.91L36.55 10.91Q36.29 10.67 36.13 10.14L36.13 10.14L36.13 10.14Q35.99 9.65 35.97 8.75L35.97 8.75L35.97 8.75Q35.94 7.74 35.87 7.36L35.87 7.36L35.87 7.36Q35.69 7.99 35.27 9.24L35.27 9.24L35.27 9.24Q35.01 9.93 34.96 10.02L34.96 10.02L34.96 10.02Q34.73 10.46 34.40 10.42L34.40 10.42L34.40 10.42Q33.73 10.26 33.36 9.66L33.36 9.66L33.36 9.66Q33.12 9.27 32.91 8.41L32.91 8.41L32.91 8.41Q32.69 7.48 32.54 7.15L32.54 7.15L32.54 7.15Q31.93 10.08 31.25 11.52L31.25 11.52L31.25 11.52Q31.15 11.73 30.66 11.49L30.66 11.49L30.66 11.49Q30.25 11.30 30.25 10.93L30.25 10.93L30.25 10.93Q30.25 10.81 30.55 10.04L30.55 10.04L30.55 10.04Q30.67 9.70 31.53 6.80L31.53 6.80L31.53 6.80Q31.82 5.80 32.14 3.26L32.14 3.26L32.14 3.26Q32.17 3.23 32.28 2.97L32.28 2.97L32.28 2.97Q32.35 2.77 32.54 2.77L32.54 2.77L32.54 2.77Q33.01 2.77 33.19 2.95L33.19 2.95L33.19 2.95Q33.19 3.36 33.33 4.26L33.33 4.26L33.33 4.26Q33.46 5.17 33.46 5.63L33.46 5.63L33.46 5.63Q33.59 6.41 33.70 7.21L33.70 7.21L33.70 7.21Q33.85 8.11 34.26 8.68L34.26 8.68L34.26 8.68Q35.60 4.94 35.97 2.77L35.97 2.77L35.97 2.77Q36.02 2.55 36.39 2.55L36.39 2.55L36.39 2.55Q36.90 2.55 36.97 2.88L36.97 2.88L36.97 2.88Q37.07 3.39 37.07 4.05L37.07 4.05L37.07 4.05Q37.07 4.26 37.04 4.97L37.04 4.97L37.04 4.97Q37.03 5.54 37.04 5.91L37.04 5.91L37.04 5.91Q37.17 8.86 37.59 10.86ZM43.33 9.95L43.33 9.95L43.33 9.95Q43.41 10.18 43.41 10.35L43.41 10.35L43.41 10.35Q43.41 10.63 43.18 10.84L43.18 10.84L43.18 10.84Q42.94 11.05 42.85 11.03L42.85 11.03L42.85 11.03Q42.17 10.91 41.99 9.93L41.99 9.93L41.99 9.93Q41.79 8.86 41.52 8.15L41.52 8.15L41.52 8.15Q41.05 8.19 40.57 8.23L40.57 8.23L40.57 8.23Q40.03 8.30 39.72 8.57L39.72 8.57L39.72 8.57Q39.56 9.00 39.31 10.11L39.31 10.11L39.31 10.11Q39.07 11.13 38.85 11.66L38.85 11.66L38.85 11.66Q38.74 11.91 38.37 11.80L38.37 11.80L38.37 11.80Q37.91 11.65 37.88 11.38L37.88 11.38L37.88 11.38Q37.84 10.85 38.19 9.95L38.19 9.95L38.19 9.95Q38.61 8.93 38.65 8.50L38.65 8.50L38.65 8.50Q38.67 8.37 38.47 8.22L38.47 8.22L38.47 8.22Q38.28 8.06 38.28 7.98L38.28 7.98L38.28 7.98Q38.28 7.91 38.34 7.83L38.34 7.83L38.34 7.83Q38.40 7.76 38.63 7.71L38.63 7.71L38.63 7.71Q38.86 7.66 38.89 7.56L38.89 7.56L38.89 7.56Q39.14 6.86 39.69 4.96L39.69 4.96L39.69 4.96Q40.15 3.30 40.52 2.42L40.52 2.42L40.52 2.42Q40.60 2.23 40.87 2.23L40.87 2.23L40.87 2.23Q41.06 2.23 41.22 2.35L41.22 2.35L41.22 2.35Q41.61 2.69 41.72 3.36L41.72 3.36L41.72 3.36Q41.80 3.93 41.87 4.51L41.87 4.51L41.87 4.51Q42.57 7.81 43.33 9.95ZM41.29 7.28L41.29 7.28L41.29 7.28Q41.24 6.76 41.10 6.12L41.10 6.12L41.10 6.12Q40.96 5.56 40.84 5.00L40.84 5.00L40.84 5.00Q40.42 6.16 40.11 7.32L40.11 7.32L40.11 7.32Q40.33 7.28 41.29 7.28ZM47.82 5.78L47.82 5.78L47.82 5.78Q47.29 6.93 46.91 7.31L46.91 7.31L46.91 7.31Q46.33 7.90 46.27 7.95L46.27 7.95L46.27 7.95Q45.86 8.27 45.46 8.34L45.46 8.34L45.46 8.34Q45.40 8.62 45.40 9.00L45.40 9.00L45.40 9.00Q45.40 9.27 45.44 9.81L45.44 9.81L45.44 9.81Q45.49 10.35 45.49 10.60L45.49 10.60L45.49 10.60Q45.49 11.55 45.04 12.03L45.04 12.03L45.04 12.03Q45.04 12.03 44.65 11.82L44.65 11.82L44.65 11.82Q44.41 11.69 44.38 11.51L44.38 11.51L44.38 11.51Q44.24 10.60 44.24 9.48L44.24 9.48L44.24 9.48Q44.24 8.74 44.32 7.27L44.32 7.27L44.32 7.27Q44.41 5.80 44.41 5.04L44.41 5.04L44.41 5.04Q44.41 3.95 44.28 3.04L44.28 3.04L44.28 3.04Q44.17 3.08 44.07 2.90L44.07 2.90L44.07 2.90Q43.97 2.72 43.90 2.69L43.90 2.69L43.90 2.69Q43.97 2.24 44.14 2.24L44.14 2.24L44.14 2.24Q44.35 2.17 45.01 2.27L45.01 2.27L45.01 2.27Q46.83 2.56 47.75 3.86L47.75 3.86L47.75 3.86Q48.05 4.28 48.05 4.82L48.05 4.82L48.05 4.82Q48.05 5.28 47.82 5.78ZM46.91 4.70L46.91 4.70L46.91 4.70Q46.98 4.14 46.44 3.82L46.44 3.82L46.44 3.82Q46.41 3.82 45.43 3.42L45.43 3.42L45.43 3.42Q45.58 5.99 45.53 7.03L45.53 7.03L45.53 7.03Q46.77 5.85 46.91 4.70Z"></path></g><!----><!----></svg>